<?xml version="1.0" standalone="no"?>
<!DOCTYPE svg PUBLIC "-//W3C//DTD SVG 20010904//EN"
 "http://www.w3.org/TR/2001/REC-SVG-20010904/DTD/svg10.dtd">
<svg version="1.0" xmlns="http://www.w3.org/2000/svg"
 width="958.000000pt" height="958.000000pt" viewBox="0 0 958.000000 958.000000"
 preserveAspectRatio="xMidYMid meet">
<metadata>
Created by potrace 1.14, written by Peter Selinger 2001-2017
</metadata>
<g transform="translate(0.000000,958.000000) scale(0.100000,-0.100000)"
fill="#000000" stroke="none">
<path d="M2343 8945 c5 -6 -20 -14 -60 -21 -85 -15 -109 -20 -151 -33 -18 -5
-36 -11 -40 -12 -14 -3 -28 -8 -112 -35 -47 -15 -88 -32 -92 -38 -5 -7 -8 -6
-8 4 0 13 -1 13 -10 0 -5 -8 -13 -15 -17 -16 -13 -1 -88 -34 -124 -54 -19 -11
-59 -32 -89 -47 -30 -15 -56 -31 -58 -35 -2 -4 -8 -8 -12 -8 -9 0 -63 -36
-135 -90 -22 -16 -46 -33 -53 -36 -8 -4 -24 -16 -37 -28 -12 -12 -46 -41 -75
-66 -70 -60 -80 -70 -80 -80 0 -5 -8 -11 -17 -14 -10 -3 -27 -19 -38 -35 -10
-16 -23 -27 -27 -25 -4 3 -8 0 -8 -5 0 -10 -19 -35 -65 -85 -6 -6 -18 -22 -27
-36 -10 -14 -31 -43 -47 -65 -17 -22 -42 -62 -56 -88 -16 -29 -30 -45 -37 -41
-6 4 -8 3 -4 -4 3 -6 2 -13 -4 -17 -6 -4 -8 -10 -5 -15 3 -5 0 -12 -5 -15 -6
-4 -15 -18 -21 -32 -5 -13 -13 -22 -18 -19 -5 4 -7 -2 -4 -13 3 -10 0 -22 -6
-25 -6 -4 -11 -16 -11 -27 0 -11 -6 -22 -14 -25 -9 -3 -12 -12 -9 -21 5 -12 3
-14 -7 -8 -9 5 -11 4 -6 -4 4 -6 2 -19 -6 -28 -7 -9 -12 -17 -10 -17 4 -1 -5
-30 -18 -61 -8 -17 -21 -59 -25 -75 -1 -3 -7 -25 -14 -50 -7 -25 -15 -52 -16
-60 -2 -8 -4 -17 -5 -20 -1 -3 -2 -9 -1 -14 1 -4 -6 -15 -16 -23 -10 -8 -12
-11 -4 -7 10 5 11 1 5 -17 -4 -13 -8 -37 -10 -54 -1 -16 -3 -30 -4 -30 -1 0
-3 -13 -5 -30 -1 -16 -3 -30 -4 -30 -3 0 -8 -77 -11 -157 -2 -35 -7 -58 -14
-58 -8 0 -8 -2 0 -8 6 -4 11 -35 10 -70 0 -52 -2 -62 -15 -57 -12 4 -12 2 1
-9 18 -13 26 -42 10 -32 -5 3 -9 -1 -9 -9 0 -8 3 -12 7 -10 3 2 7 -25 7 -61 1
-46 -2 -62 -10 -57 -9 5 -9 3 -1 -8 14 -19 17 -76 4 -84 -8 -5 -7 -11 1 -21 9
-11 8 -14 -2 -14 -9 0 -10 -3 -3 -8 15 -10 16 -114 1 -105 -9 5 -9 3 -1 -8 15
-19 15 -99 0 -99 -6 0 -6 -4 3 -9 10 -7 11 -13 1 -31 -8 -15 -8 -20 -1 -16 15
10 14 -7 -1 -23 -8 -9 -9 -11 -1 -7 7 4 11 -5 10 -28 0 -19 -4 -33 -7 -31 -4
2 -7 -2 -7 -10 0 -8 4 -12 9 -9 11 7 10 -14 -3 -38 -8 -15 -8 -19 0 -14 15 10
14 -7 -1 -23 -8 -9 -8 -11 -2 -8 8 5 12 -6 11 -33 -1 -32 -4 -40 -16 -35 -11
3 -11 1 2 -9 16 -12 17 -18 7 -36 -8 -15 -8 -20 -1 -16 15 10 14 -7 -1 -23 -8
-9 -9 -11 -1 -7 7 4 11 -5 10 -28 0 -19 -4 -33 -7 -31 -4 2 -7 -2 -7 -10 0 -8
4 -12 9 -9 11 7 10 -14 -3 -38 -8 -15 -8 -19 0 -14 15 10 14 -7 -1 -23 -9 -10
-9 -12 -1 -7 8 4 11 -3 11 -23 -1 -19 -5 -28 -12 -24 -8 5 -8 3 0 -8 14 -19
17 -76 4 -84 -8 -5 -7 -11 1 -21 9 -11 8 -14 -2 -14 -9 0 -10 -3 -3 -8 15 -10
16 -114 1 -105 -9 5 -9 3 -1 -8 15 -20 16 -281 0 -272 -6 3 -6 0 1 -7 10 -11
10 -17 0 -29 -6 -8 -7 -12 -1 -8 7 4 11 -21 11 -78 0 -60 -3 -83 -11 -78 -8 5
-8 3 0 -8 15 -20 16 -241 0 -232 -8 5 -8 3 0 -8 14 -19 17 -76 4 -84 -8 -5 -7
-11 1 -21 9 -11 8 -14 -2 -14 -9 0 -10 -3 -3 -8 15 -10 16 -114 1 -105 -9 5
-9 3 -1 -8 15 -19 15 -99 0 -99 -6 0 -6 -4 3 -9 10 -7 11 -13 1 -31 -8 -15 -8
-20 -1 -16 15 10 14 -7 -1 -23 -8 -9 -9 -11 -1 -7 7 4 11 -5 10 -28 0 -19 -4
-33 -7 -31 -4 2 -7 -2 -7 -10 0 -8 4 -12 9 -9 11 7 10 -14 -3 -38 -8 -15 -8
-19 0 -14 15 10 14 -7 -1 -23 -8 -9 -8 -11 -2 -8 8 5 12 -6 11 -33 -1 -32 -4
-40 -16 -35 -11 3 -11 1 2 -9 16 -12 17 -18 7 -36 -8 -15 -8 -20 -1 -16 15 10
14 -7 -1 -23 -8 -9 -9 -11 -1 -7 7 4 11 -5 10 -28 0 -19 -4 -33 -7 -31 -4 2
-7 -2 -7 -10 0 -8 4 -12 9 -9 11 7 10 -14 -3 -38 -8 -15 -8 -19 0 -14 15 10
14 -7 -1 -23 -9 -10 -9 -12 -1 -7 8 4 11 -3 11 -23 -1 -19 -5 -28 -12 -24 -8
5 -8 3 0 -8 14 -19 17 -76 4 -84 -8 -5 -7 -11 1 -21 9 -11 8 -14 -2 -14 -9 0
-10 -3 -3 -8 15 -10 16 -114 1 -105 -9 5 -9 3 -1 -8 16 -20 16 -281 0 -272 -7
4 -6 1 1 -8 10 -12 10 -18 0 -29 -6 -7 -7 -10 -1 -7 7 4 11 -27 11 -98 0 -74
-3 -103 -11 -98 -7 4 -6 1 1 -8 10 -12 10 -18 0 -29 -9 -10 -9 -11 0 -6 17 9
17 -16 1 -33 -10 -11 -10 -13 -1 -7 17 9 17 -6 1 -23 -7 -8 -8 -11 -2 -8 10 6
17 -45 16 -105 -1 -10 4 -20 9 -23 5 -4 6 -12 2 -18 -12 -19 -12 -37 -1 -37 6
0 5 -6 -2 -15 -7 -9 -10 -18 -6 -22 3 -3 6 0 7 8 1 8 4 3 8 -11 4 -15 3 -28
-3 -32 -8 -5 -7 -8 1 -8 6 0 10 -9 8 -20 -2 -11 1 -20 7 -20 7 0 6 -5 -2 -15
-7 -8 -17 -12 -23 -8 -6 3 -7 1 -3 -6 6 -9 11 -9 21 -1 10 8 14 3 19 -25 4
-19 4 -40 1 -45 -3 -6 -2 -10 3 -10 9 0 27 -62 25 -87 0 -7 3 -10 8 -7 8 5 13
-12 12 -43 -1 -7 4 -13 11 -13 6 0 4 -5 -4 -10 -13 -9 -13 -10 0 -10 10 0 17
-11 18 -28 1 -15 7 -28 12 -30 6 -2 10 -12 10 -23 0 -10 4 -19 8 -19 4 0 9
-10 9 -22 1 -13 7 -24 13 -26 5 -2 10 -12 10 -22 0 -10 5 -22 10 -25 6 -3 10
-15 10 -26 0 -11 4 -17 10 -14 6 3 10 -3 10 -14 0 -12 5 -21 11 -21 5 0 7 -5
4 -10 -3 -6 1 -13 9 -16 9 -3 14 -10 11 -14 -3 -5 -1 -11 5 -15 5 -3 15 -15
21 -27 8 -14 8 -18 0 -14 -7 5 -9 1 -5 -9 4 -9 9 -14 11 -11 11 10 60 -59 55
-76 -1 -5 2 -8 8 -8 5 0 10 -7 10 -16 0 -9 5 -12 11 -8 8 5 10 -2 6 -22 -5
-27 -4 -28 10 -9 15 19 15 19 10 -10 -4 -16 -4 -24 -1 -17 9 20 27 14 21 -8
-3 -11 -1 -18 4 -15 10 7 69 -53 68 -69 0 -6 -3 -6 -6 2 -2 6 -9 12 -15 12 -6
0 -6 -6 2 -15 7 -8 16 -12 22 -9 5 3 21 -6 35 -20 17 -17 21 -26 12 -27 -8 0
-2 -5 14 -11 28 -10 34 -22 17 -33 -5 -3 -7 -12 -4 -20 4 -8 11 -12 17 -8 7 4
8 0 3 -13 -6 -16 -5 -17 6 -6 11 11 10 16 -5 27 -12 9 -15 15 -7 20 13 8 41
-25 33 -39 -4 -5 -1 -6 5 -2 18 11 49 -23 46 -50 -1 -13 2 -22 7 -18 5 3 7 10
4 15 -12 18 15 9 37 -13 20 -20 20 -22 3 -34 -16 -12 -16 -13 3 -11 11 0 18 5
16 9 -10 16 13 8 34 -12 12 -11 26 -20 32 -20 6 0 15 -10 20 -22 5 -13 9 -17
9 -11 1 8 11 4 27 -10 14 -12 26 -20 27 -17 1 2 12 -5 25 -15 12 -11 39 -30
60 -41 20 -12 36 -28 34 -35 -3 -10 0 -10 12 1 9 7 16 8 16 4 0 -5 18 -17 40
-27 23 -9 38 -22 35 -27 -3 -5 0 -7 8 -4 8 3 39 -7 68 -22 30 -16 60 -27 67
-26 6 2 12 -2 12 -8 0 -6 4 -9 9 -5 5 3 12 1 16 -5 4 -6 10 -8 15 -5 5 3 12 0
16 -6 5 -8 3 -9 -6 -4 -9 5 -11 4 -6 -4 6 -9 11 -9 22 0 10 8 14 8 14 0 0 -6
9 -11 20 -11 11 0 20 -5 20 -11 0 -5 5 -7 10 -4 6 3 10 3 10 -2 0 -14 -17 -35
-26 -33 -5 1 -10 -4 -12 -12 -3 -11 -2 -11 6 0 5 8 12 12 16 10 4 -1 14 8 21
22 l14 25 2 -25 c1 -17 3 -20 6 -8 5 20 18 23 28 7 4 -6 13 -8 20 -5 7 2 18
-1 24 -7 6 -6 11 -7 11 -3 0 5 6 3 14 -3 8 -6 20 -10 27 -9 8 2 14 -5 14 -17
0 -22 31 -33 47 -17 6 6 0 8 -16 5 -21 -4 -25 -2 -20 10 3 8 13 14 22 12 9 -2
17 -4 17 -5 0 -7 174 -35 207 -33 9 0 19 -6 22 -13 7 -17 -6 -18 -24 -1 -12
10 -12 9 -1 -5 11 -15 11 -18 1 -18 -8 0 -11 -3 -8 -6 10 -9 49 16 43 27 -11
17 14 9 25 -8 11 -17 11 -17 6 1 -5 13 -2 17 9 13 8 -4 55 -7 105 -8 59 -1 87
-5 83 -12 -4 -6 -1 -7 8 -1 20 13 103 13 111 0 5 -7 8 -7 8 2 0 6 7 12 15 12
8 0 15 -6 15 -12 0 -9 2 -10 8 -2 11 18 234 14 248 -5 9 -11 15 -11 30 -2 18
11 17 12 -3 6 -13 -4 -23 -2 -23 4 0 5 18 9 40 9 25 0 37 -4 33 -11 -4 -6 -1
-7 8 -1 21 13 80 14 72 0 -3 -6 0 -5 8 1 17 17 32 17 23 1 -5 -8 -1 -8 10 1
16 13 17 12 12 -15 l-6 -29 11 27 c9 25 15 27 59 25 30 -1 46 -5 43 -12 -3 -5
0 -4 8 2 17 17 32 17 23 1 -5 -8 -1 -8 10 1 16 13 17 12 12 -15 -6 -29 -6 -29
4 -3 10 24 14 26 85 26 46 0 72 -4 68 -10 -4 -6 -1 -7 8 -1 8 5 64 9 124 9 61
0 116 4 123 9 8 4 11 3 10 -5 -2 -6 3 -14 11 -17 8 -3 11 0 7 7 -4 6 -3 11 3
11 5 0 12 -6 14 -12 4 -10 6 -10 6 0 1 14 31 17 31 3 0 -14 26 -20 41 -9 11 8
11 9 -3 4 -10 -3 -20 -1 -23 4 -4 6 11 9 34 8 24 -1 38 -5 34 -11 -4 -6 -1 -7
8 -1 23 15 77 13 83 -3 3 -8 10 -11 16 -8 5 3 10 1 10 -4 0 -6 5 -11 11 -11 8
0 8 5 -1 15 -7 8 -16 12 -21 9 -5 -3 -9 -1 -9 4 0 5 18 9 39 9 25 0 38 -5 34
-11 -3 -6 0 -5 8 2 17 16 32 16 23 0 -5 -8 -1 -8 10 1 16 13 17 12 12 -15 l-6
-29 11 27 c9 25 15 27 59 25 30 -1 46 -5 43 -12 -3 -5 0 -4 8 3 17 16 32 16
23 0 -6 -10 -5 -10 7 -1 9 7 58 10 141 9 81 -1 129 2 132 9 2 5 5 2 5 -7 1
-10 6 -18 12 -18 5 0 7 4 4 10 -3 5 -2 10 4 10 5 0 12 -6 14 -12 4 -10 6 -10
6 0 1 6 8 12 16 12 8 0 15 -6 15 -12 0 -10 2 -10 8 -1 5 8 37 11 100 9 51 -1
95 2 98 6 3 5 10 5 16 2 18 -11 322 -11 336 0 9 6 12 6 10 -4 -2 -7 3 -15 11
-18 8 -3 11 0 7 7 -4 6 -3 11 3 11 5 0 12 -6 14 -12 4 -10 6 -10 6 0 1 6 8 12
16 12 8 0 15 -6 15 -12 0 -9 2 -10 8 -2 9 15 264 14 274 -1 5 -6 8 -6 8 3 0 6
7 12 15 12 8 0 15 -6 15 -12 0 -10 2 -10 8 -2 9 15 93 14 85 0 -3 -6 0 -5 8 1
17 17 32 17 23 1 -6 -10 -4 -10 7 -2 19 15 130 15 122 0 -3 -6 0 -5 8 2 7 6
17 12 22 12 4 0 5 -6 1 -12 -6 -10 -5 -10 7 -1 8 6 37 10 64 9 28 -1 55 2 61
6 8 6 10 0 9 -15 -2 -14 1 -30 6 -38 7 -10 8 -6 5 13 -4 26 14 54 27 42 11
-11 256 -11 261 0 2 6 5 3 5 -6 1 -10 6 -18 12 -18 5 0 7 4 4 10 -3 5 -2 10 4
10 5 0 12 -6 14 -12 4 -10 6 -10 6 0 1 16 28 16 34 0 4 -10 6 -10 6 0 1 20 39
14 46 -8 3 -11 14 -20 23 -20 16 1 15 2 0 11 -22 12 -23 29 -2 29 9 0 12 -5 8
-12 -6 -10 -5 -10 7 -1 8 6 24 10 34 9 11 -2 26 2 34 8 12 8 13 8 7 -2 -5 -9
-1 -15 13 -19 12 -3 21 -9 21 -14 0 -5 6 -9 13 -9 6 1 2 9 -10 19 l-22 19 39
-1 c24 0 37 -5 33 -11 -3 -6 0 -5 8 2 17 16 32 16 23 0 -5 -8 -1 -8 10 1 16
13 17 12 11 -15 -4 -23 -3 -25 4 -9 9 19 12 18 15 -5 0 -5 12 -17 26 -26 l25
-16 -24 21 c-13 12 -20 21 -15 21 4 0 3 5 -4 12 -22 22 -13 26 48 26 33 -1 60
-5 60 -10 0 -5 5 -6 10 -3 6 4 7 12 3 18 -4 7 6 4 21 -7 16 -10 25 -13 22 -7
-4 6 0 12 11 12 33 3 58 2 73 -3 8 -3 12 -3 8 -1 -5 3 -8 8 -8 11 0 10 63 8
79 -2 9 -6 12 -5 8 1 -4 6 9 13 30 16 27 5 40 2 50 -11 14 -16 14 -16 9 0 -3
10 -1 20 4 23 6 4 10 1 10 -4 0 -6 5 -11 10 -11 6 0 9 5 8 12 -2 6 11 12 32
12 19 1 38 5 41 9 3 4 12 1 19 -8 10 -13 9 -15 -6 -15 -11 -1 -32 -11 -48 -24
-21 -18 -25 -25 -15 -31 8 -5 11 -5 7 0 -9 9 34 45 54 45 21 0 29 11 18 25 -7
8 -3 15 15 23 15 7 25 8 25 2 0 -6 5 -10 11 -10 5 0 7 4 4 10 -3 5 1 10 10 10
10 0 14 -5 10 -13 -4 -6 0 -4 8 6 8 10 28 20 43 23 16 3 35 11 43 17 12 10 14
9 8 -5 -8 -23 8 -32 30 -18 15 9 15 10 -5 5 -22 -6 -23 -5 -12 15 7 12 18 19
26 16 8 -3 14 -1 14 5 0 6 7 9 15 5 8 -3 15 -1 15 5 0 6 4 7 10 4 6 -3 10 -1
10 6 0 7 3 9 7 6 3 -4 26 5 51 19 25 15 42 21 38 15 -4 -6 -3 -11 2 -11 6 0
13 8 16 17 5 13 9 14 19 4 9 -9 9 -14 -3 -22 -13 -9 -13 -10 0 -6 8 2 16 10
16 18 1 8 2 20 3 27 0 7 5 11 11 7 5 -3 6 -13 3 -23 -3 -9 -3 -14 1 -10 4 3 9
14 10 25 2 11 11 18 24 17 12 0 19 3 16 7 -2 5 4 13 15 18 29 16 39 13 17 -4
-11 -8 -15 -15 -10 -15 17 0 33 22 27 36 -4 10 0 12 13 7 13 -5 15 -3 9 7 -5
9 -4 11 3 6 6 -4 20 2 31 13 11 11 22 17 25 13 3 -3 6 0 6 7 0 7 4 10 9 7 5
-3 12 1 15 10 3 9 11 12 18 8 17 -11 58 -11 51 -1 -3 5 -14 7 -24 4 -11 -3
-19 -3 -19 0 0 11 43 43 50 38 4 -3 10 2 14 10 7 18 23 20 29 3 2 -7 2 -3 0
10 -2 13 2 22 10 22 7 0 19 9 27 19 7 11 17 18 21 15 5 -2 13 5 19 16 6 11 14
19 18 17 4 -1 8 2 9 6 4 16 53 48 63 42 6 -3 7 0 4 9 -6 16 1 19 38 19 10 0
15 4 12 8 -3 5 -10 7 -15 4 -5 -4 -9 -1 -9 6 0 6 8 9 18 7 11 -3 19 0 19 8 0
7 -5 10 -10 7 -6 -3 -2 5 9 19 11 15 25 23 33 20 10 -4 12 -1 6 7 -5 10 -1 12
16 7 13 -3 18 -3 12 0 -16 7 -16 19 0 36 6 7 39 46 71 87 55 68 60 72 73 56 7
-11 13 -14 13 -8 0 6 -7 16 -15 23 -12 10 -11 16 7 41 12 16 28 29 35 29 8 0
11 4 8 10 -7 12 44 102 54 96 4 -3 13 0 21 6 12 8 11 9 -3 4 -15 -5 -17 -2
-11 17 3 12 13 30 22 40 8 9 12 17 8 17 -4 0 1 12 12 28 11 15 20 29 20 32 2
20 16 39 26 33 7 -4 6 -1 -1 7 -10 11 -10 17 1 29 8 9 14 18 14 21 -1 3 2 15
6 28 7 20 10 21 24 10 16 -12 16 -11 1 7 -16 19 -16 23 0 63 9 23 19 41 21 38
3 -2 6 8 6 22 1 15 4 37 8 49 5 21 11 43 21 83 2 8 4 25 4 37 1 17 5 21 19 16
14 -5 13 -3 -3 10 l-20 16 20 1 c17 0 17 2 5 10 -13 9 -13 11 0 20 12 8 12 10
1 10 -11 0 -11 3 -1 15 9 11 9 15 1 15 -7 0 -10 4 -6 10 3 5 13 7 23 4 14 -5
14 -4 3 4 -14 10 -24 52 -12 52 3 0 6 37 6 83 1 66 4 81 15 79 13 -2 13 0 0
10 -19 16 -25 48 -9 48 8 0 7 5 -2 17 -10 11 -10 14 -1 9 6 -4 12 -3 12 3 0 5
-6 12 -12 14 -10 4 -9 8 2 16 13 10 13 12 0 21 -13 9 -13 10 0 10 9 0 11 3 5
8 -6 4 -10 13 -9 20 1 6 2 16 3 22 0 5 9 7 19 4 13 -4 12 -2 -3 7 -30 18 -31
19 -15 30 10 5 11 12 5 17 -15 11 -18 42 -4 42 8 0 7 5 -2 17 -10 11 -10 14
-1 9 6 -4 12 -3 12 3 0 5 -6 12 -12 14 -10 4 -9 8 2 16 9 7 11 14 5 19 -16 11
-17 34 -3 44 10 6 10 10 -2 18 -13 9 -13 10 0 10 13 0 13 1 0 10 -13 9 -13 11
0 20 9 6 11 13 5 18 -15 11 -19 46 -5 37 9 -6 9 -2 0 15 -8 15 -8 20 -1 16 6
-4 11 -3 11 3 0 5 -6 12 -12 14 -10 4 -9 8 2 16 9 7 11 14 5 18 -16 12 -17 35
-3 45 10 6 10 10 -2 18 -13 9 -13 10 0 10 13 0 13 1 0 10 -13 9 -13 11 0 20 9
6 11 13 5 18 -15 11 -19 46 -5 37 9 -6 9 -2 0 15 -8 15 -8 20 -1 16 6 -4 11
-3 11 3 0 5 -6 12 -12 14 -10 4 -9 8 2 16 9 7 11 14 5 19 -16 11 -17 34 -3 44
10 6 10 10 -2 18 -13 9 -13 10 0 10 13 0 13 1 0 10 -13 9 -13 11 0 20 9 6 11
13 5 18 -15 11 -18 42 -4 42 8 0 7 5 -2 17 -10 11 -10 14 -1 9 6 -4 12 -3 12
3 0 5 -6 12 -12 14 -10 4 -9 8 2 16 13 10 13 12 0 21 -13 9 -13 10 0 10 9 0
11 3 5 8 -6 4 -10 13 -9 20 1 6 2 16 3 22 0 5 9 7 19 4 13 -4 12 -2 -3 7 -30
18 -31 19 -15 30 10 5 11 12 5 17 -15 11 -18 42 -4 42 8 0 7 5 -2 17 -10 11
-10 14 -1 9 6 -4 12 -3 12 3 0 5 -6 12 -12 14 -10 4 -9 8 2 16 9 7 11 14 5 18
-16 12 -17 35 -3 45 10 6 10 10 -2 18 -13 9 -13 10 0 10 13 0 13 1 0 10 -13 9
-13 11 0 20 12 8 13 12 2 19 -8 4 -14 12 -14 16 0 4 6 12 14 16 7 5 9 9 3 9
-12 0 -13 210 -1 228 4 7 2 12 -3 12 -13 0 -10 22 4 32 7 5 7 8 0 8 -11 0 -12
90 -1 108 4 7 2 12 -3 12 -13 0 -10 22 4 32 7 5 6 8 -1 8 -11 0 -10 62 1 80 3
6 3 10 -2 10 -10 0 -9 252 1 269 4 6 4 11 -1 11 -10 0 -8 133 2 150 5 7 4 11
-1 7 -10 -6 -11 44 0 61 3 6 3 13 -1 15 -10 6 -9 129 1 145 4 7 2 12 -3 12
-13 0 -10 22 4 32 6 5 5 8 -3 8 -10 0 -10 5 -2 20 6 11 7 20 2 20 -4 0 -8 9
-9 20 -1 12 3 18 9 14 6 -4 5 3 -2 16 -8 15 -8 20 -1 16 6 -4 11 -3 11 3 0 5
-6 12 -12 14 -10 4 -9 8 2 16 9 7 11 14 5 19 -15 11 -18 42 -4 42 8 0 7 5 -2
17 -10 11 -10 14 -1 9 6 -4 12 -3 12 3 0 5 -6 12 -12 14 -10 4 -9 8 2 16 9 7
11 14 5 19 -14 10 -16 28 -5 56 6 17 5 26 -3 30 -9 3 -8 7 3 15 9 7 11 14 5
19 -15 11 -18 42 -4 42 8 0 7 5 -2 17 -10 11 -10 14 -1 9 6 -4 12 -3 12 3 0 5
-6 12 -12 14 -10 4 -9 8 2 16 9 7 11 14 5 19 -16 11 -17 34 -3 44 10 6 10 10
-2 18 -13 9 -13 10 0 10 13 0 13 1 0 10 -13 9 -13 11 0 20 9 6 11 13 5 18 -15
11 -18 42 -4 42 8 0 7 5 -2 17 -10 11 -10 14 -1 9 6 -4 12 -3 12 3 0 5 -6 12
-12 14 -10 4 -9 8 2 16 9 7 11 14 5 19 -15 11 -19 46 -5 37 9 -6 9 -2 0 15 -8
15 -8 20 -1 16 6 -4 11 -3 11 3 0 5 -6 12 -12 14 -10 4 -9 8 2 16 9 7 11 14 5
19 -15 11 -18 42 -4 42 8 0 7 5 -2 17 -10 11 -10 14 -1 9 6 -4 12 -3 12 3 0 5
-6 12 -12 14 -10 4 -9 8 2 16 9 7 11 14 5 19 -16 11 -17 34 -3 44 10 6 10 10
-2 18 -13 9 -13 10 0 10 13 0 13 1 0 10 -13 9 -13 11 0 20 13 9 13 11 0 20
-13 9 -13 10 0 10 9 0 11 3 5 8 -5 4 -10 25 -10 47 1 30 4 39 15 37 13 -2 13
-1 0 10 -19 16 -27 53 -9 42 8 -5 10 -3 4 6 -5 7 -10 45 -11 83 -2 38 -6 72
-8 75 -3 2 -1 13 5 23 7 13 6 19 -1 19 -6 0 -8 11 -6 25 3 14 1 25 -4 25 -4 0
-7 8 -6 18 2 9 -3 44 -11 77 -8 33 -15 68 -16 78 -1 9 -4 17 -7 17 -3 0 -6 17
-8 37 -1 20 -6 39 -10 43 -4 3 -7 12 -7 20 1 8 -2 20 -5 25 -4 6 -14 33 -23
61 -9 27 -19 58 -23 69 -6 14 -4 16 6 10 9 -5 11 -4 6 4 -4 6 -11 9 -15 7 -3
-2 -22 30 -41 72 -37 85 -146 273 -179 311 -11 13 -18 29 -14 35 3 6 3 8 -1 4
-4 -3 -37 30 -73 75 -94 116 -258 275 -324 314 -16 10 -29 20 -29 23 0 4 -24
22 -52 40 -29 19 -54 38 -56 42 -2 4 -10 8 -18 8 -8 0 -14 5 -14 10 0 6 -6 10
-14 10 -7 0 -25 9 -40 21 -14 11 -26 17 -26 12 0 -4 -4 -3 -8 3 -6 9 -201 111
-220 115 -4 1 -18 6 -32 11 -171 63 -251 87 -306 94 -21 3 -41 8 -44 12 -3 4
-16 8 -30 9 -71 5 -92 8 -96 15 -3 5 -10 5 -17 1 -15 -9 -97 -10 -97 0 0 5 -4
5 -10 2 -16 -10 -81 -12 -86 -3 -3 5 -10 5 -16 1 -7 -3 -35 -6 -63 -6 -28 0
-56 3 -63 6 -6 4 -13 3 -17 -3 -4 -7 -12 -7 -25 0 -13 7 -21 7 -25 0 -5 -8
-11 -8 -20 0 -9 8 -15 8 -20 0 -4 -6 -12 -7 -22 -1 -9 5 -29 5 -44 1 -15 -5
-30 -6 -33 -3 -8 8 -102 7 -115 -1 -6 -4 -11 -2 -11 4 0 7 -6 8 -19 0 -14 -7
-22 -7 -26 0 -4 6 -11 7 -17 4 -12 -7 -834 -8 -881 -1 -15 2 -30 0 -33 -4 -3
-5 -14 -4 -25 1 -10 6 -19 7 -19 3 0 -10 -63 -8 -79 2 -6 3 -11 1 -11 -5 0 -6
-5 -8 -11 -4 -6 4 -33 7 -59 7 -26 0 -53 -3 -59 -7 -6 -4 -11 -2 -11 4 0 6 -5
8 -11 5 -15 -10 -79 -12 -79 -3 0 4 -11 3 -25 -2 -14 -5 -25 -6 -25 -2 0 9
-58 8 -66 -1 -4 -3 -15 -2 -25 4 -11 5 -19 6 -19 2 0 -10 -63 -8 -79 2 -6 3
-11 1 -11 -5 0 -6 -5 -8 -11 -4 -13 8 -157 9 -165 1 -3 -3 -18 -2 -32 3 -15 4
-37 3 -50 -1 -12 -5 -22 -5 -22 -1 0 9 -75 6 -90 -3 -6 -3 -10 -2 -10 4 0 6
-7 8 -16 4 -22 -8 -765 -9 -770 -1 -3 4 -16 3 -29 -2 -15 -6 -27 -6 -30 0 -4
6 -13 7 -23 1 -11 -6 -24 -6 -35 0 -11 7 -17 7 -17 0 0 -7 -8 -7 -25 -1 -14 5
-25 6 -25 2 0 -9 -65 -6 -80 3 -5 3 -11 1 -15 -5 -4 -7 -12 -7 -25 0 -13 7
-21 7 -25 0 -4 -7 -13 -7 -26 0 -12 7 -19 7 -19 1 0 -7 -9 -7 -25 -1 -14 5
-25 6 -25 2 0 -5 -17 -7 -37 -5 -74 8 -98 8 -120 1 -14 -5 -23 -3 -23 3 0 6
-7 6 -19 -1 -14 -7 -22 -7 -26 0 -4 6 -11 8 -16 4 -16 -9 -79 -10 -79 -1 0 4
-9 3 -19 -3 -13 -7 -22 -7 -26 0 -4 7 -12 7 -25 0 -13 -7 -21 -7 -25 0 -5 7
-11 8 -19 1 -6 -6 -18 -6 -25 -2 -8 5 -26 5 -42 1 -15 -5 -30 -6 -33 -3 -8 8
-102 7 -115 -1 -6 -4 -11 -2 -11 4 0 7 -6 8 -19 0 -13 -7 -22 -7 -26 0 -4 6
-13 7 -22 2 -8 -5 -33 -6 -54 -2 -22 4 -42 4 -45 -1 -2 -4 -15 -5 -27 -1 -12
4 -38 6 -57 5 -19 -2 -46 -5 -60 -6 -14 -1 -32 2 -40 7 -8 6 -11 6 -7 1z"/>
<path d="M8996 7307 c3 -10 9 -15 12 -12 3 3 0 11 -7 18 -10 9 -11 8 -5 -6z"/>
<path d="M9029 7263 c-13 -16 -12 -17 4 -4 9 7 17 15 17 17 0 8 -8 3 -21 -13z"/>
<path d="M577 7055 c-4 -8 -3 -16 1 -19 4 -3 9 4 9 15 2 23 -3 25 -10 4z"/>
<path d="M9030 6841 c0 -6 4 -13 10 -16 6 -3 7 1 4 9 -7 18 -14 21 -14 7z"/>
<path d="M575 6760 c-3 -5 -1 -10 4 -10 6 0 11 5 11 10 0 6 -2 10 -4 10 -3 0
-8 -4 -11 -10z"/>
<path d="M9015 6761 c-3 -5 -2 -12 3 -15 5 -3 9 1 9 9 0 17 -3 19 -12 6z"/>
<path d="M506 6662 c-3 -5 1 -9 9 -9 8 0 12 4 9 9 -3 4 -7 8 -9 8 -2 0 -6 -4
-9 -8z"/>
<path d="M575 6640 c3 -5 8 -10 11 -10 2 0 4 5 4 10 0 6 -5 10 -11 10 -5 0 -7
-4 -4 -10z"/>
<path d="M575 6520 c-3 -5 -1 -10 4 -10 6 0 11 5 11 10 0 6 -2 10 -4 10 -3 0
-8 -4 -11 -10z"/>
<path d="M9076 6493 c-6 -14 -5 -15 5 -6 7 7 10 15 7 18 -3 3 -9 -2 -12 -12z"/>
<path d="M575 6400 c3 -5 8 -10 11 -10 2 0 4 5 4 10 0 6 -5 10 -11 10 -5 0 -7
-4 -4 -10z"/>
<path d="M575 6371 c-3 -5 -2 -12 3 -15 5 -3 9 1 9 9 0 17 -3 19 -12 6z"/>
<path d="M9013 6269 c-2 -23 3 -25 10 -4 4 8 3 16 -1 19 -4 3 -9 -4 -9 -15z"/>
<path d="M553 6245 c0 -8 4 -12 9 -9 5 3 6 10 3 15 -9 13 -12 11 -12 -6z"/>
<path d="M553 6085 c0 -8 4 -12 9 -9 5 3 6 10 3 15 -9 13 -12 11 -12 -6z"/>
<path d="M9016 6002 c-3 -5 1 -9 9 -9 8 0 12 4 9 9 -3 4 -7 8 -9 8 -2 0 -6 -4
-9 -8z"/>
<path d="M553 5925 c0 -8 4 -12 9 -9 5 3 6 10 3 15 -9 13 -12 11 -12 -6z"/>
<path d="M553 5765 c0 -8 4 -12 9 -9 5 3 6 10 3 15 -9 13 -12 11 -12 -6z"/>
<path d="M9014 5736 c1 -8 5 -18 8 -22 4 -3 5 1 4 10 -1 8 -5 18 -8 22 -4 3
-5 -1 -4 -10z"/>
<path d="M9076 5733 c-6 -14 -5 -15 5 -6 7 7 10 15 7 18 -3 3 -9 -2 -12 -12z"/>
<path d="M506 5702 c-3 -5 1 -9 9 -9 8 0 12 4 9 9 -3 4 -7 8 -9 8 -2 0 -6 -4
-9 -8z"/>
<path d="M575 5680 c3 -5 8 -10 11 -10 2 0 4 5 4 10 0 6 -5 10 -11 10 -5 0 -7
-4 -4 -10z"/>
<path d="M9030 5676 c0 -2 8 -10 18 -17 15 -13 16 -12 3 4 -13 16 -21 21 -21
13z"/>
<path d="M9000 5666 c0 -2 8 -10 18 -17 15 -13 16 -12 3 4 -13 16 -21 21 -21
13z"/>
<path d="M575 5560 c-3 -5 -1 -10 4 -10 6 0 11 5 11 10 0 6 -2 10 -4 10 -3 0
-8 -4 -11 -10z"/>
<path d="M9009 5497 c6 -8 7 -18 3 -22 -4 -5 -1 -5 6 -1 10 6 10 11 1 22 -6 8
-14 14 -16 14 -3 0 0 -6 6 -13z"/>
<path d="M575 5440 c3 -5 8 -10 11 -10 2 0 4 5 4 10 0 6 -5 10 -11 10 -5 0 -7
-4 -4 -10z"/>
<path d="M9019 5448 c-4 -12 -5 -57 0 -53 6 6 10 55 4 55 -1 0 -3 -1 -4 -2z"/>
<path d="M9065 5420 c-3 -6 1 -7 9 -4 18 7 21 14 7 14 -6 0 -13 -4 -16 -10z"/>
<path d="M9009 5337 c6 -8 7 -18 3 -22 -4 -5 -1 -5 6 -1 10 6 10 11 1 22 -6 8
-14 14 -16 14 -3 0 0 -6 6 -13z"/>
<path d="M575 5320 c-3 -5 -1 -10 4 -10 6 0 11 5 11 10 0 6 -2 10 -4 10 -3 0
-8 -4 -11 -10z"/>
<path d="M9013 5245 c0 -8 4 -12 9 -9 5 3 6 10 3 15 -9 13 -12 11 -12 -6z"/>
<path d="M475 5229 c-4 -6 -5 -12 -2 -15 2 -3 7 2 10 11 7 17 1 20 -8 4z"/>
<path d="M9009 5177 c6 -8 7 -18 3 -22 -4 -5 -1 -5 6 -1 10 6 10 11 1 22 -6 8
-14 14 -16 14 -3 0 0 -6 6 -13z"/>
<path d="M570 5119 c0 -5 5 -7 10 -4 6 3 10 8 10 11 0 2 -4 4 -10 4 -5 0 -10
-5 -10 -11z"/>
<path d="M480 5100 c-9 -6 -10 -10 -3 -10 6 0 15 5 18 10 8 12 4 12 -15 0z"/>
<path d="M9013 5085 c0 -8 4 -12 9 -9 5 3 6 10 3 15 -9 13 -12 11 -12 -6z"/>
<path d="M575 5080 c-3 -5 -1 -10 4 -10 6 0 11 5 11 10 0 6 -2 10 -4 10 -3 0
-8 -4 -11 -10z"/>
<path d="M9009 5017 c6 -8 7 -18 3 -22 -4 -5 -1 -5 6 -1 10 6 10 11 1 22 -6 8
-14 14 -16 14 -3 0 0 -6 6 -13z"/>
<path d="M575 4960 c3 -5 8 -10 11 -10 2 0 4 5 4 10 0 6 -5 10 -11 10 -5 0 -7
-4 -4 -10z"/>
<path d="M9010 4963 c0 -6 8 -17 18 -24 16 -13 16 -13 2 6 -8 11 -16 22 -17
24 -2 2 -3 0 -3 -6z"/>
<path d="M9036 4867 c3 -10 9 -15 12 -12 3 3 0 11 -7 18 -10 9 -11 8 -5 -6z"/>
<path d="M9000 4866 c0 -2 8 -10 18 -17 15 -13 16 -12 3 4 -13 16 -21 21 -21
13z"/>
<path d="M575 4840 c-3 -5 -1 -10 4 -10 6 0 11 5 11 10 0 6 -2 10 -4 10 -3 0
-8 -4 -11 -10z"/>
<path d="M9021 4776 c-9 -11 -9 -16 1 -22 7 -4 10 -4 6 1 -4 4 -3 14 3 22 6 7
9 13 6 13 -2 0 -10 -6 -16 -14z"/>
<path d="M9079 4773 c-13 -16 -12 -17 4 -4 16 13 21 21 13 21 -2 0 -10 -8 -17
-17z"/>
<path d="M506 4742 c-3 -5 1 -9 9 -9 8 0 12 4 9 9 -3 4 -7 8 -9 8 -2 0 -6 -4
-9 -8z"/>
<path d="M575 4720 c3 -5 8 -10 11 -10 2 0 4 5 4 10 0 6 -5 10 -11 10 -5 0 -7
-4 -4 -10z"/>
<path d="M9030 4716 c0 -2 8 -10 18 -17 15 -13 16 -12 3 4 -13 16 -21 21 -21
13z"/>
<path d="M9000 4706 c0 -2 8 -10 18 -17 15 -13 16 -12 3 4 -13 16 -21 21 -21
13z"/>
<path d="M575 4600 c-3 -5 -1 -10 4 -10 6 0 11 5 11 10 0 6 -2 10 -4 10 -3 0
-8 -4 -11 -10z"/>
<path d="M9009 4537 c6 -8 7 -18 3 -22 -4 -5 -1 -5 6 -1 10 6 10 11 1 22 -6 8
-14 14 -16 14 -3 0 0 -6 6 -13z"/>
<path d="M575 4480 c3 -5 8 -10 11 -10 2 0 4 5 4 10 0 6 -5 10 -11 10 -5 0 -7
-4 -4 -10z"/>
<path d="M9014 4476 c1 -8 5 -18 8 -22 4 -3 5 1 4 10 -1 8 -5 18 -8 22 -4 3
-5 -1 -4 -10z"/>
<path d="M575 4451 c-3 -5 -2 -12 3 -15 5 -3 9 1 9 9 0 17 -3 19 -12 6z"/>
<path d="M9013 4351 c0 -11 5 -18 9 -15 4 3 5 11 1 19 -7 21 -12 19 -10 -4z"/>
<path d="M553 4325 c0 -8 4 -12 9 -9 5 3 6 10 3 15 -9 13 -12 11 -12 -6z"/>
<path d="M553 4165 c0 -8 4 -12 9 -9 5 3 6 10 3 15 -9 13 -12 11 -12 -6z"/>
<path d="M9016 4078 c3 -5 10 -6 15 -3 13 9 11 12 -6 12 -8 0 -12 -4 -9 -9z"/>
<path d="M553 4005 c0 -8 4 -12 9 -9 5 3 6 10 3 15 -9 13 -12 11 -12 -6z"/>
<path d="M9106 3982 c-3 -5 1 -9 9 -9 8 0 12 4 9 9 -3 4 -7 8 -9 8 -2 0 -6 -4
-9 -8z"/>
<path d="M9015 3881 c-3 -5 -2 -12 3 -15 5 -3 9 1 9 9 0 17 -3 19 -12 6z"/>
<path d="M553 3845 c0 -8 4 -12 9 -9 5 3 6 10 3 15 -9 13 -12 11 -12 -6z"/>
<path d="M506 3782 c-3 -5 1 -9 9 -9 8 0 12 4 9 9 -3 4 -7 8 -9 8 -2 0 -6 -4
-9 -8z"/>
<path d="M575 3760 c3 -5 8 -10 11 -10 2 0 4 5 4 10 0 6 -5 10 -11 10 -5 0 -7
-4 -4 -10z"/>
<path d="M575 3640 c-3 -5 -1 -10 4 -10 6 0 11 5 11 10 0 6 -2 10 -4 10 -3 0
-8 -4 -11 -10z"/>
<path d="M9013 3631 c0 -11 5 -18 9 -15 4 3 5 11 1 19 -7 21 -12 19 -10 -4z"/>
<path d="M575 3520 c3 -5 8 -10 11 -10 2 0 4 5 4 10 0 6 -5 10 -11 10 -5 0 -7
-4 -4 -10z"/>
<path d="M575 3400 c-3 -5 -1 -10 4 -10 6 0 11 5 11 10 0 6 -2 10 -4 10 -3 0
-8 -4 -11 -10z"/>
<path d="M9015 3401 c-3 -5 -2 -12 3 -15 5 -3 9 1 9 9 0 17 -3 19 -12 6z"/>
<path d="M475 3309 c-4 -6 -5 -12 -2 -15 2 -3 7 2 10 11 7 17 1 20 -8 4z"/>
<path d="M570 3199 c0 -5 5 -7 10 -4 6 3 10 8 10 11 0 2 -4 4 -10 4 -5 0 -10
-5 -10 -11z"/>
<path d="M480 3180 c-9 -6 -10 -10 -3 -10 6 0 15 5 18 10 8 12 4 12 -15 0z"/>
<path d="M575 3160 c-3 -5 -1 -10 4 -10 6 0 11 5 11 10 0 6 -2 10 -4 10 -3 0
-8 -4 -11 -10z"/>
<path d="M9016 3118 c3 -5 10 -6 15 -3 13 9 11 12 -6 12 -8 0 -12 -4 -9 -9z"/>
<path d="M9016 3002 c-3 -4 4 -9 15 -9 23 -2 25 3 4 10 -8 4 -16 3 -19 -1z"/>
<path d="M8990 2940 c0 -5 5 -10 10 -10 6 0 10 5 10 10 0 6 -4 10 -10 10 -5 0
-10 -4 -10 -10z"/>
<path d="M9015 2880 c-3 -5 -1 -10 4 -10 6 0 11 5 11 10 0 6 -2 10 -4 10 -3 0
-8 -4 -11 -10z"/>
<path d="M506 2818 c3 -5 10 -6 15 -3 13 9 11 12 -6 12 -8 0 -12 -4 -9 -9z"/>
<path d="M576 2798 c3 -5 10 -6 15 -3 13 9 11 12 -6 12 -8 0 -12 -4 -9 -9z"/>
<path d="M576 2742 c-2 -4 -1 -14 4 -22 7 -11 9 -9 7 8 -1 24 -3 26 -11 14z"/>
<path d="M576 2602 c-3 -5 1 -9 9 -9 8 0 12 4 9 9 -3 4 -7 8 -9 8 -2 0 -6 -4
-9 -8z"/>
<path d="M8960 2580 c-9 -6 -10 -10 -3 -10 6 0 15 5 18 10 8 12 4 12 -15 0z"/>
<path d="M8995 2571 c-3 -5 -2 -12 3 -15 5 -3 9 1 9 9 0 17 -3 19 -12 6z"/>
<path d="M8975 2501 c-3 -5 -2 -12 3 -15 5 -3 9 1 9 9 0 17 -3 19 -12 6z"/>
<path d="M8915 2460 c3 -5 8 -10 11 -10 2 0 4 5 4 10 0 6 -5 10 -11 10 -5 0
-7 -4 -4 -10z"/>
<path d="M8896 2401 c-3 -4 3 -16 13 -25 14 -13 18 -14 18 -2 0 8 -5 14 -11
13 -6 -1 -10 4 -8 11 2 14 -4 16 -12 3z"/>
<path d="M595 2359 c-3 -4 2 -6 10 -5 21 3 28 13 10 13 -9 0 -18 -4 -20 -8z"/>
<path d="M669 2343 c-13 -16 -12 -17 4 -4 16 13 21 21 13 21 -2 0 -10 -8 -17
-17z"/>
<path d="M8934 2336 c1 -8 5 -18 8 -22 4 -3 5 1 4 10 -1 8 -5 18 -8 22 -4 3
-5 -1 -4 -10z"/>
<path d="M8869 2283 c-13 -16 -12 -17 4 -4 16 13 21 21 13 21 -2 0 -10 -8 -17
-17z"/>
<path d="M734 2229 c-3 -6 -2 -15 3 -20 5 -5 9 -1 9 11 0 23 -2 24 -12 9z"/>
<path d="M713 2175 c0 -8 4 -12 9 -9 5 3 6 10 3 15 -9 13 -12 11 -12 -6z"/>
<path d="M8802 2158 c-15 -15 -15 -28 0 -28 6 0 8 3 5 7 -4 3 -2 12 4 20 14
16 7 17 -9 1z"/>
<path d="M630 2099 c0 -5 5 -7 10 -4 6 3 10 8 10 11 0 2 -4 4 -10 4 -5 0 -10
-5 -10 -11z"/>
<path d="M8859 2108 c-5 -18 -6 -38 -1 -34 7 8 12 36 6 36 -2 0 -4 -1 -5 -2z"/>
<path d="M699 2088 c-7 -23 -4 -35 7 -35 9 0 11 4 4 12 -5 7 -7 15 -3 18 3 4
3 7 0 7 -4 0 -7 -1 -8 -2z"/>
<path d="M8779 2053 c-13 -16 -12 -17 4 -4 16 13 21 21 13 21 -2 0 -10 -8 -17
-17z"/>
<path d="M800 2040 c-9 -6 -10 -10 -3 -10 6 0 15 5 18 10 8 12 4 12 -15 0z"/>
<path d="M833 2029 c-2 -23 3 -25 10 -4 4 8 3 16 -1 19 -4 3 -9 -4 -9 -15z"/>
<path d="M8730 2030 c-9 -6 -10 -10 -3 -10 6 0 15 5 18 10 8 12 4 12 -15 0z"/>
<path d="M733 2005 c0 -8 4 -12 9 -9 5 3 6 10 3 15 -9 13 -12 11 -12 -6z"/>
<path d="M795 2010 c-4 -6 -11 -7 -17 -4 -7 4 -8 2 -4 -5 6 -9 11 -9 22 0 14
11 18 19 10 19 -3 0 -8 -5 -11 -10z"/>
<path d="M8710 2006 c0 -2 7 -7 16 -10 8 -3 12 -2 9 4 -6 10 -25 14 -25 6z"/>
<path d="M8794 1988 c-19 -23 -19 -23 2 -5 11 9 24 14 29 10 4 -5 5 -2 1 5 -9
16 -10 16 -32 -10z"/>
<path d="M856 1987 c3 -10 9 -15 12 -12 3 3 0 11 -7 18 -10 9 -11 8 -5 -6z"/>
<path d="M8755 1981 c-3 -5 -2 -12 3 -15 5 -3 9 1 9 9 0 17 -3 19 -12 6z"/>
<path d="M851 1947 c-8 -10 -7 -14 2 -14 8 0 14 6 14 14 0 7 -1 13 -2 13 -2 0
-8 -6 -14 -13z"/>
<path d="M774 1922 c4 -3 14 -7 22 -8 9 -1 13 0 10 4 -4 3 -14 7 -22 8 -9 1
-13 0 -10 -4z"/>
<path d="M8653 1914 c-3 -8 -1 -20 5 -26 8 -8 9 -4 5 12 -5 17 -3 21 7 15 9
-5 11 -4 6 3 -10 16 -15 15 -23 -4z"/>
<path d="M916 1893 c-6 -14 -5 -15 5 -6 7 7 10 15 7 18 -3 3 -9 -2 -12 -12z"/>
<path d="M879 1873 c-13 -16 -12 -17 4 -4 9 7 17 15 17 17 0 8 -8 3 -21 -13z"/>
<path d="M939 1868 c7 -9 9 -23 5 -30 -6 -10 -4 -11 7 0 11 10 10 15 -6 30
-17 15 -18 15 -6 0z"/>
<path d="M915 1863 c3 -3 0 -11 -5 -18 -7 -8 -5 -12 4 -12 14 0 16 22 3 32 -4
3 -5 2 -2 -2z"/>
<path d="M8654 1829 c-3 -6 -2 -15 3 -20 5 -5 9 -1 9 11 0 23 -2 24 -12 9z"/>
<path d="M855 1811 c-3 -5 -2 -12 3 -15 5 -3 9 1 9 9 0 17 -3 19 -12 6z"/>
<path d="M8570 1805 c0 -5 5 -17 10 -25 5 -8 10 -10 10 -5 0 6 -5 17 -10 25
-5 8 -10 11 -10 5z"/>
<path d="M983 1778 c1 -15 8 -24 19 -24 16 0 16 1 0 21 -9 11 -18 21 -18 23
-1 2 -1 -7 -1 -20z"/>
<path d="M945 1780 c-3 -6 1 -7 9 -4 18 7 21 14 7 14 -6 0 -13 -4 -16 -10z"/>
<path d="M8549 1749 c5 -15 7 -29 5 -32 -3 -3 -1 -8 5 -11 13 -8 4 45 -10 59
-7 7 -7 1 0 -16z"/>
<path d="M1050 1740 c0 -5 5 -10 11 -10 5 0 7 5 4 10 -3 6 -8 10 -11 10 -2 0
-4 -4 -4 -10z"/>
<path d="M896 1718 c3 -4 11 -5 19 -1 21 7 19 12 -4 10 -11 0 -18 -5 -15 -9z"/>
<path d="M993 1713 c0 -9 4 -10 14 -2 7 6 13 12 13 14 0 1 -6 2 -13 2 -8 0
-14 -6 -14 -14z"/>
<path d="M8510 1720 c-12 -7 -10 -9 7 -7 12 0 19 5 17 9 -6 10 -6 10 -24 -2z"/>
<path d="M1019 1693 c-13 -16 -12 -17 4 -4 9 7 17 15 17 17 0 8 -8 3 -21 -13z"/>
<path d="M937 1675 c-4 -8 -3 -16 1 -19 4 -3 9 4 9 15 2 23 -3 25 -10 4z"/>
<path d="M1055 1670 c-4 -6 -11 -8 -16 -5 -5 4 -9 1 -9 -4 0 -16 16 -13 30 4
7 8 10 15 7 15 -3 0 -9 -5 -12 -10z"/>
<path d="M1115 1660 c3 -5 8 -10 11 -10 2 0 4 5 4 10 0 6 -5 10 -11 10 -5 0
-7 -4 -4 -10z"/>
<path d="M8474 1658 c-4 -7 -4 -10 1 -6 4 4 15 2 24 -5 14 -11 14 -10 2 6 -16
20 -18 21 -27 5z"/>
<path d="M8616 1638 c3 -5 10 -6 15 -3 13 9 11 12 -6 12 -8 0 -12 -4 -9 -9z"/>
<path d="M1029 1623 c-13 -16 -12 -17 4 -4 9 7 17 15 17 17 0 8 -8 3 -21 -13z"/>
<path d="M1140 1620 c8 -5 20 -10 25 -10 6 0 3 5 -5 10 -8 5 -19 10 -25 10 -5
0 -3 -5 5 -10z"/>
<path d="M8450 1621 c0 -6 4 -13 10 -16 6 -3 7 1 4 9 -7 18 -14 21 -14 7z"/>
<path d="M8519 1613 c-13 -16 -12 -17 4 -4 16 13 21 21 13 21 -2 0 -10 -8 -17
-17z"/>
<path d="M8573 1611 c0 -11 5 -18 9 -15 4 3 5 11 1 19 -7 21 -12 19 -10 -4z"/>
<path d="M1108 1603 c7 -3 16 -2 19 1 4 3 -2 6 -13 5 -11 0 -14 -3 -6 -6z"/>
<path d="M8422 1581 c-8 -5 1 -7 22 -7 35 1 40 8 8 12 -9 2 -23 0 -30 -5z"/>
<path d="M1154 1566 c1 -8 5 -18 8 -22 4 -3 5 1 4 10 -1 8 -5 18 -8 22 -4 3
-5 -1 -4 -10z"/>
<path d="M1237 1539 c7 -7 15 -10 18 -7 3 3 -2 9 -12 12 -14 6 -15 5 -6 -5z"/>
<path d="M8453 1535 c0 -8 4 -12 9 -9 4 3 8 9 8 15 0 5 -4 9 -8 9 -5 0 -9 -7
-9 -15z"/>
<path d="M8320 1536 c0 -2 7 -7 16 -10 8 -3 12 -2 9 4 -6 10 -25 14 -25 6z"/>
<path d="M1226 1516 c5 -12 4 -17 -3 -13 -5 3 -10 -1 -10 -9 0 -13 2 -13 16 0
12 13 13 18 2 28 -10 11 -11 9 -5 -6z"/>
<path d="M8486 1522 c-3 -5 1 -9 9 -9 8 0 12 4 9 9 -3 4 -7 8 -9 8 -2 0 -6 -4
-9 -8z"/>
<path d="M8315 1509 c-4 -6 -5 -12 -2 -15 2 -3 7 2 10 11 7 17 1 20 -8 4z"/>
<path d="M1030 1506 c0 -2 7 -7 16 -10 8 -3 12 -2 9 4 -6 10 -25 14 -25 6z"/>
<path d="M1136 1498 c3 -5 10 -6 15 -3 13 9 11 12 -6 12 -8 0 -12 -4 -9 -9z"/>
<path d="M8355 1500 c3 -5 8 -10 11 -10 2 0 4 5 4 10 0 6 -5 10 -11 10 -5 0
-7 -4 -4 -10z"/>
<path d="M1295 1491 c-3 -5 0 -13 6 -17 7 -4 9 -3 5 4 -3 5 0 13 6 15 9 4 10
6 1 6 -6 1 -14 -3 -18 -8z"/>
<path d="M8393 1485 c0 -8 4 -12 9 -9 5 3 6 10 3 15 -9 13 -12 11 -12 -6z"/>
<path d="M1248 1472 c-17 -7 -17 -8 0 -18 15 -10 18 -8 18 7 0 11 0 19 -1 18
0 0 -8 -4 -17 -7z"/>
<path d="M8276 1465 c4 -8 8 -15 10 -15 2 0 4 7 4 15 0 8 -4 15 -10 15 -5 0
-7 -7 -4 -15z"/>
<path d="M1090 1460 c0 -5 5 -10 11 -10 5 0 7 5 4 10 -3 6 -8 10 -11 10 -2 0
-4 -4 -4 -10z"/>
<path d="M1286 1457 c3 -10 9 -15 12 -12 3 3 0 11 -7 18 -10 9 -11 8 -5 -6z"/>
<path d="M8399 1453 c-13 -16 -12 -17 4 -4 16 13 21 21 13 21 -2 0 -10 -8 -17
-17z"/>
<path d="M1220 1446 c0 -2 8 -10 18 -17 15 -13 16 -12 3 4 -13 16 -21 21 -21
13z"/>
<path d="M8316 1438 c3 -5 10 -6 15 -3 13 9 11 12 -6 12 -8 0 -12 -4 -9 -9z"/>
<path d="M1346 1423 c-6 -14 -5 -15 5 -6 7 7 10 15 7 18 -3 3 -9 -2 -12 -12z"/>
<path d="M8251 1431 c-8 -5 -9 -11 -3 -15 5 -3 12 1 16 9 6 17 6 18 -13 6z"/>
<path d="M8301 1425 c9 -11 15 -28 14 -38 -2 -11 -1 -16 3 -13 13 14 9 36 -11
53 -22 18 -22 18 -6 -2z"/>
<path d="M1293 1414 c0 -9 4 -11 12 -4 7 5 14 9 16 7 2 -1 3 0 1 2 -7 11 -29
7 -29 -5z"/>
<path d="M1377 1389 c4 -13 8 -18 11 -10 2 7 -1 18 -6 23 -8 8 -9 4 -5 -13z"/>
<path d="M1315 1390 c-4 -6 -10 -8 -14 -6 -4 3 -8 -1 -8 -9 0 -12 4 -12 21 2
12 10 23 19 25 20 2 2 -1 3 -7 3 -6 0 -14 -5 -17 -10z"/>
<path d="M8253 1387 c0 -8 6 -14 14 -14 9 0 10 4 2 14 -6 7 -12 13 -14 13 -1
0 -2 -6 -2 -13z"/>
<path d="M1407 1379 c7 -7 15 -10 18 -7 3 3 -2 9 -12 12 -14 6 -15 5 -6 -5z"/>
<path d="M8146 1375 c10 -8 23 -15 28 -15 6 0 1 7 -10 15 -10 8 -23 15 -28 15
-6 0 -1 -7 10 -15z"/>
<path d="M1346 1358 c3 -5 10 -6 15 -3 13 9 11 12 -6 12 -8 0 -12 -4 -9 -9z"/>
<path d="M1470 1365 c0 -5 5 -17 10 -25 5 -8 10 -10 10 -5 0 6 -5 17 -10 25
-5 8 -10 11 -10 5z"/>
<path d="M8190 1366 c0 -2 7 -7 16 -10 8 -3 12 -2 9 4 -6 10 -25 14 -25 6z"/>
<path d="M1395 1350 c-4 -6 -10 -8 -14 -6 -4 3 -13 1 -20 -4 -9 -5 -3 -7 16
-7 17 1 30 7 30 14 0 16 -4 16 -12 3z"/>
<path d="M1430 1350 c8 -5 20 -10 25 -10 6 0 3 5 -5 10 -8 5 -19 10 -25 10 -5
0 -3 -5 5 -10z"/>
<path d="M8080 1340 c0 -5 5 -10 11 -10 5 0 7 5 4 10 -3 6 -8 10 -11 10 -2 0
-4 -4 -4 -10z"/>
<path d="M8279 1333 c-13 -16 -12 -17 4 -4 16 13 21 21 13 21 -2 0 -10 -8 -17
-17z"/>
<path d="M8356 1338 c3 -5 10 -6 15 -3 13 9 11 12 -6 12 -8 0 -12 -4 -9 -9z"/>
<path d="M1496 1323 c-6 -14 -5 -15 5 -6 7 7 10 15 7 18 -3 3 -9 -2 -12 -12z"/>
<path d="M1295 1320 c3 -5 8 -10 11 -10 2 0 4 5 4 10 0 6 -5 10 -11 10 -5 0
-7 -4 -4 -10z"/>
<path d="M8055 1319 c-4 -6 -5 -12 -2 -15 2 -3 7 2 10 11 7 17 1 20 -8 4z"/>
<path d="M8153 1313 c0 -9 4 -10 14 -2 7 6 13 12 13 14 0 1 -6 2 -13 2 -8 0
-14 -6 -14 -14z"/>
<path d="M8333 1315 c0 -8 4 -12 9 -9 5 3 6 10 3 15 -9 13 -12 11 -12 -6z"/>
<path d="M1374 1309 c-3 -6 -2 -15 3 -20 5 -5 9 -1 9 11 0 23 -2 24 -12 9z"/>
<path d="M1537 1309 c7 -7 15 -10 18 -7 3 3 -2 9 -12 12 -14 6 -15 5 -6 -5z"/>
<path d="M8130 1311 c0 -7 -5 -9 -12 -5 -7 4 -10 4 -6 -1 4 -4 3 -13 -2 -20
-7 -8 -5 -12 5 -12 8 0 13 3 10 5 -3 3 0 11 7 19 6 7 8 16 4 20 -3 3 -6 1 -6
-6z"/>
<path d="M1438 1298 c-9 -5 -6 -7 9 -5 12 2 25 6 28 8 8 9 -23 6 -37 -3z"/>
<path d="M1506 1302 c-3 -5 1 -9 9 -9 8 0 12 4 9 9 -3 4 -7 8 -9 8 -2 0 -6 -4
-9 -8z"/>
<path d="M8031 1294 c0 -11 3 -14 6 -6 3 7 2 16 -1 19 -3 4 -6 -2 -5 -13z"/>
<path d="M8193 1293 c0 -9 4 -10 14 -2 7 6 13 12 13 14 0 1 -6 2 -13 2 -8 0
-14 -6 -14 -14z"/>
<path d="M1295 1279 c-3 -4 2 -6 10 -5 21 3 28 13 10 13 -9 0 -18 -4 -20 -8z"/>
<path d="M1475 1281 c-3 -5 -2 -12 3 -15 5 -3 9 1 9 9 0 17 -3 19 -12 6z"/>
<path d="M1535 1281 c-3 -6 5 -15 17 -21 21 -10 21 -10 6 3 -10 8 -15 17 -11
20 3 4 4 7 0 7 -3 0 -8 -4 -12 -9z"/>
<path d="M8146 1282 c-2 -4 4 -8 14 -8 10 0 16 4 14 8 -3 4 -9 8 -14 8 -5 0
-11 -4 -14 -8z"/>
<path d="M1500 1273 c0 -7 5 -15 10 -18 6 -4 8 -11 5 -16 -4 -5 -1 -9 4 -9 15
0 13 11 -4 34 -8 11 -15 15 -15 9z"/>
<path d="M1586 1263 c-6 -14 -5 -15 5 -6 7 7 10 15 7 18 -3 3 -9 -2 -12 -12z"/>
<path d="M7995 1267 c23 -13 75 -18 75 -6 0 4 -13 6 -30 4 -16 -2 -32 1 -35 6
-4 5 -12 9 -18 9 -7 0 -3 -6 8 -13z"/>
<path d="M1337 1255 c-4 -8 -3 -16 1 -19 4 -3 9 4 9 15 2 23 -3 25 -10 4z"/>
<path d="M1446 1262 c-3 -5 1 -9 9 -9 8 0 12 4 9 9 -3 4 -7 8 -9 8 -2 0 -6 -4
-9 -8z"/>
<path d="M1626 1262 c-3 -5 1 -9 9 -9 8 0 12 4 9 9 -3 4 -7 8 -9 8 -2 0 -6 -4
-9 -8z"/>
<path d="M1595 1240 c-3 -5 -1 -10 4 -10 6 0 11 5 11 10 0 6 -2 10 -4 10 -3 0
-8 -4 -11 -10z"/>
<path d="M1649 1228 c-8 -15 -8 -23 1 -32 8 -8 9 -6 4 8 -5 13 -4 17 4 12 8
-4 10 -2 6 8 -4 11 0 13 15 9 12 -3 21 -3 21 0 0 2 -9 7 -20 10 -14 3 -24 -1
-31 -15z"/>
<path d="M7893 1219 c-2 -23 3 -25 10 -4 4 8 3 16 -1 19 -4 3 -9 -4 -9 -15z"/>
<path d="M7981 1218 c-13 -20 -12 -22 1 -11 8 7 17 11 20 8 2 -3 5 2 5 10 0
21 -10 19 -26 -7z"/>
<path d="M8049 1223 c-13 -16 -12 -17 4 -4 16 13 21 21 13 21 -2 0 -10 -8 -17
-17z"/>
<path d="M8094 1229 c-3 -6 -2 -15 3 -20 5 -5 9 -1 9 11 0 23 -2 24 -12 9z"/>
<path d="M1515 1211 c-3 -5 -2 -12 3 -15 5 -3 9 1 9 9 0 17 -3 19 -12 6z"/>
<path d="M1740 1211 c0 -5 -8 -7 -19 -4 -10 3 -21 1 -24 -4 -3 -5 6 -8 21 -7
14 0 28 6 30 12 2 7 1 12 -2 12 -3 0 -6 -4 -6 -9z"/>
<path d="M7917 1213 c-10 -10 -8 -23 4 -23 5 0 7 5 3 12 -5 8 -2 9 10 5 10 -4
15 -3 11 3 -7 12 -19 13 -28 3z"/>
<path d="M1415 1200 c3 -5 8 -10 11 -10 2 0 4 5 4 10 0 6 -5 10 -11 10 -5 0
-7 -4 -4 -10z"/>
<path d="M1756 1194 c-3 -9 -2 -22 2 -31 6 -10 9 -5 9 16 0 35 -2 38 -11 15z"/>
<path d="M8011 1187 c-8 -10 -7 -14 2 -14 8 0 14 6 14 14 0 7 -1 13 -2 13 -2
0 -8 -6 -14 -13z"/>
<path d="M1600 1174 c-11 -12 -10 -18 5 -32 18 -16 18 -16 6 0 -13 18 -6 42
10 33 5 -4 9 -1 9 4 0 16 -16 13 -30 -5z"/>
<path d="M1780 1180 c0 -5 5 -10 10 -10 6 0 10 5 10 10 0 6 -4 10 -10 10 -5 0
-10 -4 -10 -10z"/>
<path d="M7760 1175 c-7 -9 -11 -17 -9 -20 3 -2 10 5 17 15 14 24 10 26 -8 5z"/>
<path d="M7855 1179 c-3 -4 2 -6 10 -5 21 3 28 13 10 13 -9 0 -18 -4 -20 -8z"/>
<path d="M7939 1173 c-12 -16 -12 -17 2 -6 9 7 19 10 22 6 4 -3 7 -1 7 5 0 17
-16 15 -31 -5z"/>
<path d="M1815 1171 c-6 -11 13 -26 22 -17 4 3 1 6 -6 6 -7 0 -9 5 -6 10 3 6
4 10 1 10 -3 0 -7 -4 -11 -9z"/>
<path d="M1667 1159 c7 -7 15 -10 18 -7 3 3 -2 9 -12 12 -14 6 -15 5 -6 -5z"/>
<path d="M1735 1161 c6 -10 2 -12 -16 -6 -13 4 -22 6 -19 4 3 -2 14 -12 26
-22 20 -16 21 -16 19 3 -1 11 -5 23 -10 27 -4 5 -5 2 0 -6z"/>
<path d="M1850 1160 c0 -5 5 -10 11 -10 5 0 7 5 4 10 -3 6 -8 10 -11 10 -2 0
-4 -4 -4 -10z"/>
<path d="M7767 1150 c-9 -11 -13 -20 -7 -20 5 0 14 9 20 20 6 11 9 20 8 20 -2
0 -11 -9 -21 -20z"/>
<path d="M7875 1160 c-16 -7 -17 -9 -3 -9 9 -1 20 4 23 9 7 11 7 11 -20 0z"/>
<path d="M1881 1144 c0 -11 3 -14 6 -6 3 7 2 16 -1 19 -3 4 -6 -2 -5 -13z"/>
<path d="M7837 1153 c-10 -9 -9 -23 1 -23 5 0 9 7 9 15 0 17 -1 18 -10 8z"/>
<path d="M7955 1150 c-4 -6 -10 -8 -14 -6 -4 3 -8 -1 -8 -9 0 -10 4 -12 12 -5
7 5 14 8 17 5 2 -3 5 2 5 10 0 18 -3 19 -12 5z"/>
<path d="M1533 1131 c0 -11 5 -18 9 -15 4 3 5 11 1 19 -7 21 -12 19 -10 -4z"/>
<path d="M1780 1138 c0 -4 7 -8 15 -8 8 0 15 4 15 8 0 5 -7 9 -15 9 -8 0 -15
-4 -15 -9z"/>
<path d="M7710 1140 c0 -5 7 -7 15 -4 8 4 15 8 15 10 0 2 -7 4 -15 4 -8 0 -15
-4 -15 -10z"/>
<path d="M1830 1130 c-9 -6 -10 -10 -3 -10 6 0 15 5 18 10 8 12 4 12 -15 0z"/>
<path d="M1856 1123 c-6 -14 -5 -15 5 -6 7 7 10 15 7 18 -3 3 -9 -2 -12 -12z"/>
<path d="M1894 1115 c-4 -8 -11 -12 -16 -9 -6 4 -5 -3 1 -15 14 -25 23 -28 14
-4 -4 11 -3 14 5 9 8 -5 10 -1 5 10 -5 13 -3 15 7 9 9 -5 11 -4 6 3 -10 16
-15 15 -22 -3z"/>
<path d="M1935 1120 c-3 -5 -1 -10 4 -10 6 0 11 5 11 10 0 6 -2 10 -4 10 -3 0
-8 -4 -11 -10z"/>
<path d="M7659 1128 c-8 -36 -8 -51 0 -38 5 8 7 18 5 22 -3 4 -1 8 5 8 5 0 12
-5 14 -10 3 -6 4 -5 3 2 -2 10 -25 25 -27 16z"/>
<path d="M7796 1115 c-11 -8 -17 -17 -14 -20 2 -3 13 4 23 15 21 23 18 25 -9
5z"/>
<path d="M1753 1103 c4 -3 2 -11 -3 -18 -7 -8 -6 -12 3 -12 7 0 14 9 14 19 1
10 -3 18 -9 18 -6 0 -8 -3 -5 -7z"/>
<path d="M1794 1088 l-19 -23 21 18 c17 14 23 15 27 5 4 -8 6 -7 6 5 1 23 -12
21 -35 -5z"/>
<path d="M1960 1099 c0 -5 5 -7 10 -4 6 3 10 8 10 11 0 2 -4 4 -10 4 -5 0 -10
-5 -10 -11z"/>
<path d="M7714 1098 c-4 -6 -3 -8 4 -4 5 3 13 0 15 -6 3 -8 6 -6 6 5 1 19 -14
23 -25 5z"/>
<path d="M1713 1085 c0 -8 4 -12 9 -9 5 3 6 10 3 15 -9 13 -12 11 -12 -6z"/>
<path d="M1928 1093 c6 -2 9 -10 6 -15 -4 -7 -2 -8 5 -4 13 9 5 26 -12 25 -9
0 -8 -2 1 -6z"/>
<path d="M7532 1091 c5 -16 44 -25 53 -12 3 5 0 13 -6 17 -8 5 -9 3 -5 -5 10
-15 -25 -11 -37 4 -5 6 -7 4 -5 -4z"/>
<path d="M7750 1096 c0 -2 8 -10 18 -17 15 -13 16 -12 3 4 -13 16 -21 21 -21
13z"/>
<path d="M7835 1091 c-3 -5 -2 -12 3 -15 5 -3 9 1 9 9 0 17 -3 19 -12 6z"/>
<path d="M1615 1080 c3 -5 8 -10 11 -10 2 0 4 5 4 10 0 6 -5 10 -11 10 -5 0
-7 -4 -4 -10z"/>
<path d="M2050 1079 c0 -5 5 -7 10 -4 6 3 10 8 10 11 0 2 -4 4 -10 4 -5 0 -10
-5 -10 -11z"/>
<path d="M2073 1067 c-10 -13 -27 -21 -38 -20 l-20 3 20 -9 c14 -6 23 -5 31 5
6 7 14 12 17 9 4 -3 5 -2 2 2 -3 3 0 12 6 20 6 7 9 13 6 13 -3 0 -14 -10 -24
-23z"/>
<path d="M7930 1079 c0 -5 5 -7 10 -4 6 3 10 8 10 11 0 2 -4 4 -10 4 -5 0 -10
-5 -10 -11z"/>
<path d="M7790 1077 c0 -2 6 -10 14 -16 11 -9 16 -9 22 1 4 7 4 10 -1 6 -4 -4
-14 -3 -22 3 -7 6 -13 9 -13 6z"/>
<path d="M1793 1056 c-3 -6 -3 -8 2 -4 4 4 13 3 20 -2 8 -7 12 -5 12 3 0 16
-25 18 -34 3z"/>
<path d="M1947 1051 c-3 -13 -1 -18 9 -14 7 2 10 11 7 19 -7 19 -10 18 -16 -5z"/>
<path d="M2100 1066 c0 -2 7 -6 15 -10 8 -3 15 -1 15 4 0 6 -7 10 -15 10 -8 0
-15 -2 -15 -4z"/>
<path d="M7440 1060 c8 -5 20 -10 25 -10 6 0 3 5 -5 10 -8 5 -19 10 -25 10 -5
0 -3 -5 5 -10z"/>
<path d="M7590 1060 c0 -5 5 -10 11 -10 5 0 7 5 4 10 -3 6 -8 10 -11 10 -2 0
-4 -4 -4 -10z"/>
<path d="M7717 1052 c-15 -16 -15 -19 -2 -19 8 0 13 3 10 5 -3 3 0 11 6 19 17
20 5 16 -14 -5z"/>
<path d="M1866 1045 c-11 -8 -15 -15 -9 -15 6 0 16 7 23 15 16 19 11 19 -14 0z"/>
<path d="M7550 1050 c8 -5 20 -10 25 -10 6 0 3 5 -5 10 -8 5 -19 10 -25 10 -5
0 -3 -5 5 -10z"/>
<path d="M1645 1040 c-3 -6 1 -7 9 -4 18 7 21 14 7 14 -6 0 -13 -4 -16 -10z"/>
<path d="M1696 1042 c-3 -4 4 -9 15 -9 23 -2 25 3 4 10 -8 4 -16 3 -19 -1z"/>
<path d="M2095 1041 c-3 -6 5 -15 17 -21 21 -10 21 -10 6 3 -10 8 -15 17 -11
20 3 4 4 7 0 7 -3 0 -8 -4 -12 -9z"/>
<path d="M2136 1042 c-2 -4 0 -14 6 -22 8 -12 9 -12 5 2 -3 9 -1 19 6 22 9 3
9 5 0 5 -6 1 -14 -3 -17 -7z"/>
<path d="M7510 1041 c0 -5 8 -15 18 -22 15 -12 16 -12 5 2 -7 9 -10 19 -6 22
3 4 1 7 -5 7 -7 0 -12 -4 -12 -9z"/>
<path d="M7745 1040 c-3 -6 1 -7 9 -4 18 7 21 14 7 14 -6 0 -13 -4 -16 -10z"/>
<path d="M7855 1040 c3 -5 8 -10 11 -10 2 0 4 5 4 10 0 6 -5 10 -11 10 -5 0
-7 -4 -4 -10z"/>
<path d="M7895 1040 c-3 -5 -1 -10 4 -10 6 0 11 5 11 10 0 6 -2 10 -4 10 -3 0
-8 -4 -11 -10z"/>
<path d="M2235 1030 c-4 -6 -3 -10 1 -10 4 0 -1 -7 -12 -16 -19 -15 -19 -15 1
-5 42 22 48 28 31 34 -8 3 -18 2 -21 -3z"/>
<path d="M7435 1030 c-3 -5 -1 -10 4 -10 6 0 11 5 11 10 0 6 -2 10 -4 10 -3 0
-8 -4 -11 -10z"/>
<path d="M7475 1019 c1 -10 5 -22 10 -26 4 -5 4 -2 0 6 -6 11 -4 13 8 8 11 -4
14 -2 11 8 -9 22 -31 25 -29 4z"/>
<path d="M7675 1030 c-4 -6 -10 -8 -15 -5 -5 3 -11 2 -14 -3 -2 -4 6 -8 18 -8
12 0 23 6 23 13 0 16 -4 16 -12 3z"/>
<path d="M1775 1020 c3 -5 8 -10 11 -10 2 0 4 5 4 10 0 6 -5 10 -11 10 -5 0
-7 -4 -4 -10z"/>
<path d="M2066 1022 c-3 -5 1 -9 9 -9 8 0 12 4 9 9 -3 4 -7 8 -9 8 -2 0 -6 -4
-9 -8z"/>
<path d="M2290 1025 c0 -7 30 -13 34 -7 3 4 -4 9 -15 9 -10 1 -19 0 -19 -2z"/>
<path d="M2337 1015 c-4 -8 -3 -16 2 -19 14 -9 45 1 49 15 2 8 0 10 -5 4 -14
-17 -43 -18 -37 0 3 8 4 15 1 15 -3 0 -7 -7 -10 -15z"/>
<path d="M7249 1017 c14 -17 13 -18 -5 -15 -10 1 -23 8 -27 13 -5 6 -7 4 -5
-4 5 -16 44 -25 52 -12 3 5 -2 15 -12 22 -16 13 -16 12 -3 -4z"/>
<path d="M7315 1014 c-11 -8 -19 -20 -17 -26 2 -6 -4 -8 -13 -5 -8 4 -15 3
-15 -2 0 -5 9 -11 19 -14 13 -3 18 0 16 12 -1 9 10 24 24 33 14 10 22 18 16
18 -5 -1 -19 -8 -30 -16z"/>
<path d="M7576 1013 c-6 -14 -5 -15 5 -6 7 7 10 15 7 18 -3 3 -9 -2 -12 -12z"/>
<path d="M2184 1004 c-18 -14 -18 -15 4 -4 12 6 22 13 22 15 0 8 -5 6 -26 -11z"/>
<path d="M7152 1012 c2 -8 8 -13 13 -12 6 1 13 -9 17 -22 l7 -23 -2 23 c-1 12
-6 22 -11 22 -5 -1 -13 4 -18 12 -8 11 -9 11 -6 0z"/>
<path d="M7390 1010 c-9 -6 -10 -10 -3 -10 6 0 15 5 18 10 8 12 4 12 -15 0z"/>
<path d="M1734 998 c-4 -7 -4 -10 1 -6 4 4 15 2 24 -5 14 -11 14 -10 2 6 -16
20 -18 21 -27 5z"/>
<path d="M1948 1003 c7 -3 16 -2 19 1 4 3 -2 6 -13 5 -11 0 -14 -3 -6 -6z"/>
<path d="M2257 1003 c-3 -5 0 -17 4 -28 9 -18 9 -18 5 3 -3 16 1 22 14 22 13
0 17 -6 14 -22 -4 -21 -4 -21 5 -3 11 25 5 35 -19 35 -10 0 -21 -3 -23 -7z"/>
<path d="M2399 1003 c0 -5 -2 -18 -5 -30 -2 -13 0 -23 4 -23 4 0 8 14 8 30 1
17 0 30 -2 30 -2 0 -4 -3 -5 -7z"/>
<path d="M4975 1000 c-9 -15 4 -30 23 -29 16 1 16 2 0 6 -10 2 -15 10 -11 19
6 16 -3 19 -12 4z"/>
<path d="M6175 1000 c-3 -5 -1 -10 4 -10 6 0 11 5 11 10 0 6 -2 10 -4 10 -3 0
-8 -4 -11 -10z"/>
<path d="M7054 995 c3 -9 0 -15 -9 -15 -8 0 -15 -5 -15 -10 0 -7 6 -7 20 0 16
9 19 40 3 40 -3 0 -3 -7 1 -15z"/>
<path d="M7415 1000 c-3 -6 1 -7 9 -4 18 7 21 14 7 14 -6 0 -13 -4 -16 -10z"/>
<path d="M7620 1006 c0 -2 8 -10 18 -17 15 -13 16 -12 3 4 -13 16 -21 21 -21
13z"/>
<path d="M2048 993 c-10 -2 -18 -9 -18 -15 0 -6 3 -8 7 -5 3 4 11 3 17 -3 8
-6 12 -3 12 11 0 10 0 18 -1 18 0 -1 -8 -3 -17 -6z"/>
<path d="M2552 984 c-7 -8 -8 -14 -3 -14 10 0 25 19 20 25 -2 1 -10 -3 -17
-11z"/>
<path d="M2597 986 c-4 -10 -3 -15 3 -11 6 3 10 1 10 -6 0 -7 3 -10 6 -6 3 3
2 13 -4 22 -8 16 -9 16 -15 1z"/>
<path d="M2630 990 c0 -5 7 -7 15 -4 8 4 15 8 15 10 0 2 -7 4 -15 4 -8 0 -15
-4 -15 -10z"/>
<path d="M2719 998 c-5 -19 -8 -50 -4 -46 7 7 15 48 9 48 -2 0 -4 -1 -5 -2z"/>
<path d="M2781 991 c-11 -7 -9 -10 8 -16 13 -4 25 -4 28 -1 4 3 -1 6 -11 6 -9
0 -14 5 -11 10 8 12 4 12 -14 1z"/>
<path d="M2833 974 c0 -17 2 -22 7 -13 5 6 6 18 3 26 -8 19 -10 16 -10 -13z"/>
<path d="M2870 990 c0 -5 5 -10 10 -10 6 0 10 5 10 10 0 6 -4 10 -10 10 -5 0
-10 -4 -10 -10z"/>
<path d="M2917 987 c-3 -8 -2 -20 3 -26 5 -9 8 -4 8 13 0 29 -3 32 -11 13z"/>
<path d="M3157 987 c-3 -8 -2 -20 3 -26 5 -9 8 -4 8 13 0 29 -3 32 -11 13z"/>
<path d="M3206 985 c4 -8 11 -15 16 -15 6 0 5 6 -2 15 -7 8 -14 15 -16 15 -2
0 -1 -7 2 -15z"/>
<path d="M3235 975 c0 -20 10 -24 35 -15 3 1 8 2 13 1 4 0 7 4 7 9 0 14 -13
13 -28 -2 -9 -9 -12 -8 -12 4 0 9 -3 19 -7 21 -5 3 -8 -5 -8 -18z"/>
<path d="M3341 981 c-12 -22 -5 -31 23 -30 20 1 20 1 -1 7 -18 6 -20 10 -12
22 8 11 12 12 16 3 2 -7 9 -13 15 -13 6 0 6 6 -2 15 -17 20 -27 19 -39 -4z"/>
<path d="M3395 975 c0 -20 10 -24 35 -15 3 1 8 2 13 1 4 0 7 4 7 9 0 14 -13
13 -28 -2 -9 -9 -12 -8 -12 4 0 9 -3 19 -7 21 -5 3 -8 -5 -8 -18z"/>
<path d="M3500 981 c-10 -20 4 -41 17 -27 4 3 1 6 -6 6 -9 0 -9 5 -1 20 6 11
8 20 6 20 -3 0 -10 -9 -16 -19z"/>
<path d="M3614 975 c1 -11 4 -18 8 -15 4 3 14 -4 23 -15 16 -19 16 -19 5 3 -6
12 -15 20 -20 17 -5 -3 -10 3 -13 12 -3 14 -4 14 -3 -2z"/>
<path d="M3953 974 c0 -17 2 -22 7 -13 5 6 6 18 3 26 -8 19 -10 16 -10 -13z"/>
<path d="M4195 975 c0 -20 10 -24 35 -15 3 1 8 2 13 1 4 0 7 4 7 9 0 14 -13
13 -28 -2 -9 -9 -12 -8 -12 4 0 9 -3 19 -7 21 -5 3 -8 -5 -8 -18z"/>
<path d="M4301 981 c-12 -22 -5 -31 23 -30 20 1 20 1 -1 7 -18 6 -20 10 -12
22 8 11 12 12 16 3 2 -7 9 -13 15 -13 6 0 6 6 -2 15 -17 20 -27 19 -39 -4z"/>
<path d="M4355 975 c0 -13 3 -21 8 -18 4 2 7 10 7 18 0 8 -3 16 -7 18 -5 3 -8
-5 -8 -18z"/>
<path d="M4434 985 c-9 -23 5 -35 37 -31 22 3 29 0 25 -10 -3 -8 -1 -14 5 -14
6 0 9 8 7 18 -2 9 -11 16 -20 14 -9 -1 -19 2 -23 8 -3 5 1 10 9 10 9 0 16 5
16 10 0 7 -7 7 -20 0 -11 -6 -18 -15 -15 -21 4 -5 1 -9 -6 -9 -6 0 -9 8 -6 20
6 23 -1 27 -9 5z"/>
<path d="M4521 992 c-1 -7 -6 -10 -12 -7 -6 4 -5 -2 2 -13 7 -12 14 -20 14
-19 0 1 7 11 15 21 8 11 10 17 3 13 -6 -4 -14 -1 -16 5 -4 10 -6 10 -6 0z"/>
<path d="M4753 974 c0 -17 2 -22 7 -13 5 6 6 18 3 26 -8 19 -10 16 -10 -13z"/>
<path d="M4790 990 c0 -5 5 -10 10 -10 6 0 10 5 10 10 0 6 -4 10 -10 10 -5 0
-10 -4 -10 -10z"/>
<path d="M4837 987 c-3 -8 -2 -20 3 -26 5 -9 8 -4 8 13 0 29 -3 32 -11 13z"/>
<path d="M5035 990 c-3 -5 -1 -10 4 -10 6 0 11 5 11 10 0 6 -2 10 -4 10 -3 0
-8 -4 -11 -10z"/>
<path d="M5081 992 c-1 -7 -6 -10 -13 -6 -7 4 -8 3 -4 -5 4 -6 11 -9 16 -6 4
3 10 -1 13 -8 7 -19 51 -14 55 6 2 9 -1 17 -7 17 -6 0 -8 -6 -5 -13 3 -8 -3
-13 -16 -13 -13 0 -19 5 -15 14 2 7 1 11 -4 7 -5 -3 -12 1 -14 7 -4 10 -6 10
-6 0z"/>
<path d="M5393 974 c0 -17 2 -22 7 -13 5 6 6 18 3 26 -8 19 -10 16 -10 -13z"/>
<path d="M5430 990 c0 -5 5 -10 10 -10 6 0 10 5 10 10 0 6 -4 10 -10 10 -5 0
-10 -4 -10 -10z"/>
<path d="M5477 987 c-3 -8 -2 -20 3 -26 5 -9 8 -4 8 13 0 29 -3 32 -11 13z"/>
<path d="M5661 991 c-11 -7 -9 -10 8 -16 13 -4 25 -4 28 -1 4 3 -1 6 -11 6 -9
0 -14 5 -11 10 8 12 4 12 -14 1z"/>
<path d="M5713 974 c0 -17 2 -22 7 -13 5 6 6 18 3 26 -8 19 -10 16 -10 -13z"/>
<path d="M5750 989 c0 -5 5 -7 10 -4 6 3 10 1 10 -4 0 -6 5 -11 11 -11 8 0 8
5 -1 15 -14 17 -30 20 -30 4z"/>
<path d="M5795 975 c0 -20 10 -24 35 -15 3 1 8 2 13 1 4 0 7 4 7 9 0 14 -13
13 -28 -2 -9 -9 -12 -8 -12 4 0 9 -3 19 -7 21 -5 3 -8 -5 -8 -18z"/>
<path d="M5873 985 c-3 -9 -3 -18 -1 -21 3 -3 8 4 11 16 6 23 -1 27 -10 5z"/>
<path d="M5900 980 c-9 -16 -8 -22 5 -26 8 -3 22 -3 30 0 13 4 14 10 5 26 -6
11 -15 20 -20 20 -5 0 -14 -9 -20 -20z m34 -5 c4 -10 -1 -15 -14 -15 -13 0
-18 5 -14 15 4 8 10 15 14 15 4 0 10 -7 14 -15z"/>
<path d="M5957 979 c4 -13 8 -18 11 -10 2 7 -1 18 -6 23 -8 8 -9 4 -5 -13z"/>
<path d="M6031 986 c-9 -10 -8 -16 3 -26 17 -13 40 -4 30 12 -5 8 -1 9 10 5
11 -5 15 -3 10 5 -5 8 -1 9 12 4 14 -5 16 -4 8 4 -14 14 -58 -5 -49 -21 4 -5
2 -9 -3 -9 -16 0 -22 13 -11 27 6 7 9 13 6 13 -2 0 -10 -6 -16 -14z"/>
<path d="M6235 990 c-3 -5 -1 -10 4 -10 6 0 11 5 11 10 0 6 -2 10 -4 10 -3 0
-8 -4 -11 -10z"/>
<path d="M6277 987 c-3 -8 -2 -20 3 -26 5 -9 8 -4 8 13 0 29 -3 32 -11 13z"/>
<path d="M6513 974 c0 -17 2 -22 7 -13 5 6 6 18 3 26 -8 19 -10 16 -10 -13z"/>
<path d="M6550 990 c0 -5 5 -10 11 -10 5 0 7 5 4 10 -3 6 -8 10 -11 10 -2 0
-4 -4 -4 -10z"/>
<path d="M6755 975 c0 -20 10 -24 35 -15 3 1 8 2 13 1 4 0 7 4 7 9 0 14 -13
13 -28 -2 -9 -9 -12 -8 -12 4 0 9 -3 19 -7 21 -5 3 -8 -5 -8 -18z"/>
<path d="M6885 985 c11 -9 19 -19 18 -23 -2 -4 7 -7 20 -7 12 0 21 5 20 13 -3
14 13 16 20 2 3 -6 4 -5 3 2 -2 7 -9 13 -17 13 -8 0 -13 -6 -11 -12 1 -7 -7
-13 -19 -13 -11 0 -18 4 -14 9 3 6 -5 15 -17 21 -22 11 -22 11 -3 -5z"/>
<path d="M7534 980 c0 -11 4 -16 11 -11 5 4 24 7 42 6 17 0 29 3 27 7 -3 4
-15 6 -27 4 -12 -2 -29 0 -37 4 -12 6 -16 3 -16 -10z"/>
<path d="M1956 982 c-3 -5 1 -9 9 -9 8 0 12 4 9 9 -3 4 -7 8 -9 8 -2 0 -6 -4
-9 -8z"/>
<path d="M2186 982 c-3 -5 1 -9 9 -9 8 0 12 4 9 9 -3 4 -7 8 -9 8 -2 0 -6 -4
-9 -8z"/>
<path d="M2315 980 c-3 -5 -1 -10 4 -10 6 0 11 5 11 10 0 6 -2 10 -4 10 -3 0
-8 -4 -11 -10z"/>
<path d="M2461 980 c-9 -5 -4 -7 13 -7 29 0 32 2 13 10 -8 3 -20 2 -26 -3z"/>
<path d="M2670 980 c0 -6 7 -10 15 -10 8 0 15 2 15 4 0 2 -7 6 -15 10 -8 3
-15 1 -15 -4z"/>
<path d="M2940 980 c0 -5 5 -10 11 -10 5 0 7 5 4 10 -3 6 -8 10 -11 10 -2 0
-4 -4 -4 -10z"/>
<path d="M2970 981 c0 -5 7 -11 14 -14 10 -4 13 -1 9 9 -6 15 -23 19 -23 5z"/>
<path d="M3007 984 c7 -3 9 -13 6 -22 -5 -13 -3 -14 7 -5 14 13 5 33 -13 32
-9 0 -9 -2 0 -5z"/>
<path d="M3070 980 c-13 -8 -12 -10 3 -10 9 0 17 5 17 10 0 12 -1 12 -20 0z"/>
<path d="M3533 970 c2 -11 7 -23 12 -27 4 -5 4 -2 0 6 -6 10 -4 13 7 9 8 -4
21 -3 28 2 14 9 5 30 -13 29 -9 0 -8 -2 1 -6 6 -2 10 -9 7 -13 -3 -5 -12 -7
-20 -4 -8 4 -12 10 -9 15 3 5 0 9 -5 9 -6 0 -10 -9 -8 -20z"/>
<path d="M3650 980 c0 -5 5 -10 10 -10 6 0 10 5 10 10 0 6 -4 10 -10 10 -5 0
-10 -4 -10 -10z"/>
<path d="M3700 977 c0 -9 -5 -16 -12 -14 -6 1 -13 -6 -14 -16 -1 -12 0 -13 3
-2 2 8 9 13 14 9 11 -6 25 24 15 33 -3 4 -6 -1 -6 -10z"/>
<path d="M3732 974 c2 -8 7 -14 11 -12 5 2 13 -5 18 -14 11 -20 29 -24 29 -7
0 5 -4 8 -9 5 -5 -3 -12 1 -15 10 -3 9 -11 12 -18 8 -8 -5 -9 -2 -5 9 3 10 2
17 -4 17 -6 0 -9 -7 -7 -16z"/>
<path d="M3770 981 c0 -5 7 -11 14 -14 10 -4 13 -1 9 9 -6 15 -23 19 -23 5z"/>
<path d="M3807 984 c7 -3 9 -13 6 -22 -5 -13 -3 -14 7 -5 14 13 5 33 -13 32
-9 0 -9 -2 0 -5z"/>
<path d="M3868 983 c7 -3 16 -2 19 1 4 3 -2 6 -13 5 -11 0 -14 -3 -6 -6z"/>
<path d="M4030 980 c0 -6 7 -10 15 -10 8 0 15 2 15 4 0 2 -7 6 -15 10 -8 3
-15 1 -15 -4z"/>
<path d="M4070 980 c0 -5 5 -10 10 -10 6 0 10 5 10 10 0 6 -4 10 -10 10 -5 0
-10 -4 -10 -10z"/>
<path d="M4110 980 c-13 -8 -12 -10 3 -10 9 0 17 5 17 10 0 12 -1 12 -20 0z"/>
<path d="M4570 980 c0 -15 35 -29 49 -20 15 9 6 30 -12 29 -9 0 -8 -2 1 -6 6
-2 10 -9 7 -13 -3 -5 -12 -7 -20 -4 -8 4 -12 10 -9 15 3 5 0 9 -5 9 -6 0 -11
-4 -11 -10z"/>
<path d="M4668 983 c7 -3 16 -2 19 1 4 3 -2 6 -13 5 -11 0 -14 -3 -6 -6z"/>
<path d="M4860 980 c0 -5 5 -10 11 -10 5 0 7 5 4 10 -3 6 -8 10 -11 10 -2 0
-4 -4 -4 -10z"/>
<path d="M4895 958 c4 -18 9 -35 12 -38 3 -3 3 5 0 18 -4 17 -2 22 7 19 18 -7
40 8 32 22 -4 6 -13 11 -19 10 -9 0 -8 -2 1 -6 6 -2 10 -9 7 -13 -3 -5 -12 -7
-20 -4 -8 4 -12 10 -9 15 3 5 0 9 -6 9 -6 0 -8 -12 -5 -32z"/>
<path d="M5172 974 c2 -8 8 -15 13 -15 6 0 15 -10 22 -22 7 -12 12 -18 13 -14
0 19 -22 47 -32 41 -7 -5 -9 -1 -5 9 3 10 2 17 -4 17 -6 0 -9 -7 -7 -16z"/>
<path d="M5210 980 c0 -5 5 -10 10 -10 6 0 10 5 10 10 0 6 -4 10 -10 10 -5 0
-10 -4 -10 -10z"/>
<path d="M5250 983 c14 -6 13 -24 -1 -20 -6 1 -14 -5 -16 -13 -4 -12 -3 -12 5
-2 5 8 13 13 18 13 14 -1 10 22 -4 25 -7 1 -8 0 -2 -3z"/>
<path d="M5308 983 c7 -3 16 -2 19 1 4 3 -2 6 -13 5 -11 0 -14 -3 -6 -6z"/>
<path d="M5500 978 c0 -11 22 -10 39 1 10 7 7 9 -12 8 -15 -1 -27 -5 -27 -9z"/>
<path d="M5568 983 c6 -2 10 -9 7 -13 -3 -5 -12 -7 -19 -4 -18 7 -30 -12 -15
-22 8 -5 9 -3 4 6 -6 9 -4 12 7 8 8 -4 21 -3 28 2 14 9 5 30 -13 29 -9 0 -8
-2 1 -6z"/>
<path d="M6300 980 c0 -5 5 -10 11 -10 5 0 7 5 4 10 -3 6 -8 10 -11 10 -2 0
-4 -4 -4 -10z"/>
<path d="M6333 973 c3 -22 26 -62 27 -47 0 5 -6 16 -12 23 -11 11 -10 13 3 8
9 -3 22 -2 29 3 14 9 5 30 -13 29 -9 0 -8 -2 1 -6 6 -2 10 -9 7 -13 -3 -5 -12
-7 -20 -4 -8 4 -12 10 -9 15 3 5 0 9 -5 9 -6 0 -10 -8 -8 -17z"/>
<path d="M6428 983 c7 -3 16 -2 19 1 4 3 -2 6 -13 5 -11 0 -14 -3 -6 -6z"/>
<path d="M6633 968 c-2 -18 0 -20 7 -8 12 18 13 30 2 30 -4 0 -9 -10 -9 -22z"/>
<path d="M6668 983 c7 -3 16 -2 19 1 4 3 -2 6 -13 5 -11 0 -14 -3 -6 -6z"/>
<path d="M6996 975 c4 -8 8 -15 10 -15 2 0 4 7 4 15 0 8 -4 15 -10 15 -5 0 -7
-7 -4 -15z"/>
<path d="M7090 979 c0 -5 5 -7 10 -4 6 3 10 8 10 11 0 2 -4 4 -10 4 -5 0 -10
-5 -10 -11z"/>
<path d="M7375 980 c3 -5 8 -10 11 -10 2 0 4 5 4 10 0 6 -5 10 -11 10 -5 0 -7
-4 -4 -10z"/>
<path d="M7436 981 c9 -9 34 -9 34 -1 0 5 -9 8 -20 7 -10 -1 -17 -3 -14 -6z"/>
<path d="M2344 964 c-18 -14 -18 -14 6 -3 31 14 36 19 24 19 -6 0 -19 -7 -30
-16z"/>
<path d="M3918 973 c7 -3 16 -2 19 1 4 3 -2 6 -13 5 -11 0 -14 -3 -6 -6z"/>
<path d="M4390 970 c0 -5 5 -10 10 -10 6 0 10 5 10 10 0 6 -4 10 -10 10 -5 0
-10 -4 -10 -10z"/>
<path d="M4718 973 c7 -3 16 -2 19 1 4 3 -2 6 -13 5 -11 0 -14 -3 -6 -6z"/>
<path d="M5358 973 c7 -3 16 -2 19 1 4 3 -2 6 -13 5 -11 0 -14 -3 -6 -6z"/>
<path d="M5613 966 c11 -8 25 -12 33 -9 10 4 13 0 8 -13 -5 -15 -4 -16 4 -4
12 16 5 33 -11 27 -7 -2 -21 0 -32 5 -19 9 -19 8 -2 -6z"/>
<path d="M5990 970 c0 -5 5 -10 10 -10 6 0 10 5 10 10 0 6 -4 10 -10 10 -5 0
-10 -4 -10 -10z"/>
<path d="M6188 973 c7 -3 16 -2 19 1 4 3 -2 6 -13 5 -11 0 -14 -3 -6 -6z"/>
<path d="M6478 973 c7 -3 16 -2 19 1 4 3 -2 6 -13 5 -11 0 -14 -3 -6 -6z"/>
<path d="M7230 970 c8 -5 20 -10 25 -10 6 0 3 5 -5 10 -8 5 -19 10 -25 10 -5
0 -3 -5 5 -10z"/>
<path d="M1855 960 c3 -5 8 -10 11 -10 2 0 4 5 4 10 0 6 -5 10 -11 10 -5 0 -7
-4 -4 -10z"/>
<path d="M1895 960 c3 -5 8 -10 11 -10 2 0 4 5 4 10 0 6 -5 10 -11 10 -5 0 -7
-4 -4 -10z"/>
<path d="M2148 963 c7 -3 16 -2 19 1 4 3 -2 6 -13 5 -11 0 -14 -3 -6 -6z"/>
<path d="M2510 960 c0 -5 5 -10 10 -10 6 0 10 5 10 10 0 6 -4 10 -10 10 -5 0
-10 -4 -10 -10z"/>
<path d="M2574 962 c4 -7 3 -12 -3 -12 -6 0 -15 -10 -21 -22 -10 -20 -9 -21 2
-8 8 8 20 20 27 26 10 9 10 13 0 19 -8 5 -10 4 -5 -3z"/>
<path d="M2630 960 c0 -5 8 -6 18 -3 15 6 16 5 2 -13 -14 -18 -14 -18 2 -5 10
7 15 17 12 22 -7 12 -34 11 -34 -1z"/>
<path d="M2734 958 c-3 -5 -3 -12 0 -15 3 -4 6 -2 6 3 0 5 9 10 19 11 14 1 19
-4 16 -18 -3 -17 -1 -18 18 -8 32 17 35 23 9 14 -16 -4 -22 -3 -20 6 3 15 -40
21 -48 7z"/>
<path d="M2853 953 c-3 -8 -3 -17 1 -20 3 -4 6 0 6 8 0 8 9 15 20 15 15 0 19
-5 15 -21 -6 -19 -5 -19 5 -2 7 10 9 21 6 25 -12 12 -48 9 -53 -5z"/>
<path d="M3047 958 c7 -8 9 -19 5 -23 -4 -5 -1 -4 7 0 11 6 13 4 8 -9 -4 -10
-3 -15 3 -11 17 10 11 29 -12 44 -20 13 -22 12 -11 -1z"/>
<path d="M3095 960 c-4 -7 3 -9 19 -6 17 3 26 -1 30 -12 4 -13 4 -13 3 2 -2
21 -42 32 -52 16z"/>
<path d="M3853 953 c-3 -7 -3 -18 0 -25 3 -7 6 -4 6 7 1 13 8 21 21 22 13 1
18 -2 14 -9 -4 -7 -2 -8 5 -4 6 4 9 11 6 16 -8 13 -47 8 -52 -7z"/>
<path d="M3975 960 c-6 -10 0 -39 10 -47 4 -4 5 -3 2 4 -4 6 -1 14 5 16 10 4
10 6 1 6 -21 2 -15 17 7 18 13 1 18 -2 14 -9 -4 -7 -2 -8 5 -4 6 4 9 11 6 16
-6 10 -44 9 -50 0z"/>
<path d="M4136 961 c-3 -5 6 -8 20 -8 19 0 22 2 13 8 -18 11 -26 11 -33 0z"/>
<path d="M4554 962 c3 -5 0 -12 -6 -15 -7 -2 -10 -7 -7 -11 3 -4 12 0 18 8 9
11 9 16 0 22 -7 4 -9 3 -5 -4z"/>
<path d="M4653 953 c-3 -8 -3 -17 1 -20 3 -4 6 0 6 8 0 8 9 15 20 16 11 1 18
-2 15 -7 -9 -15 14 -22 32 -10 16 9 15 10 -5 5 -15 -5 -22 -3 -20 6 4 18 -42
20 -49 2z"/>
<path d="M4769 948 c-6 -12 -6 -18 1 -18 5 0 10 6 10 14 0 16 31 16 43 1 5 -6
7 -4 5 4 -6 21 -47 21 -59 -1z"/>
<path d="M4957 955 c-4 -8 -3 -16 1 -19 4 -3 9 4 9 15 2 23 -3 25 -10 4z"/>
<path d="M5017 962 c-3 -4 0 -16 4 -27 9 -19 9 -19 5 2 -3 16 1 21 16 20 13
-1 18 -7 15 -19 -3 -10 0 -21 6 -25 7 -3 9 -3 5 2 -4 4 0 14 10 22 9 8 12 12
5 9 -6 -4 -13 -1 -15 6 -5 13 -45 21 -51 10z"/>
<path d="M5294 958 c-3 -5 -3 -12 0 -15 3 -4 6 -2 6 3 0 5 8 10 19 11 14 1 18
-3 13 -20 -3 -12 -2 -20 1 -17 3 3 7 14 9 25 2 15 -3 20 -20 21 -12 1 -25 -3
-28 -8z"/>
<path d="M5414 958 c-3 -5 -3 -12 0 -15 3 -4 6 -2 6 3 0 5 9 10 20 10 15 0 19
-5 15 -21 -6 -19 -5 -19 5 -2 7 10 9 21 6 25 -10 9 -46 10 -52 0z"/>
<path d="M5736 962 c-10 -9 -7 -32 4 -32 5 0 7 6 4 14 -4 11 0 13 15 9 12 -3
21 -3 21 0 0 7 -38 16 -44 9z"/>
<path d="M6095 961 c-3 -5 0 -13 6 -17 8 -5 9 -3 5 5 -6 8 -2 11 10 9 11 -2
22 -12 26 -23 6 -17 7 -17 5 4 -2 25 -40 40 -52 22z"/>
<path d="M6215 961 c-3 -5 -1 -12 5 -16 5 -3 10 -11 10 -16 0 -6 -5 -7 -12 -3
-7 5 -8 3 -3 -5 5 -9 10 -10 18 -2 7 7 6 15 -3 26 -12 15 -11 16 6 13 10 -1
23 -7 27 -13 5 -6 7 -4 5 4 -5 16 -44 25 -53 12z"/>
<path d="M6415 960 c-6 -10 0 -39 10 -47 4 -4 5 -3 2 4 -4 6 -1 14 5 16 10 4
10 6 1 6 -21 2 -15 17 7 18 13 1 18 -2 14 -9 -4 -7 -2 -8 5 -4 6 4 9 11 6 16
-6 10 -44 9 -50 0z"/>
<path d="M6535 961 c-10 -10 -4 -21 18 -31 20 -10 20 -10 5 3 -23 18 -23 22 2
24 13 1 18 -2 14 -9 -4 -7 -2 -8 5 -4 6 4 9 11 6 16 -5 9 -42 10 -50 1z"/>
<path d="M6653 953 c-3 -7 -3 -18 0 -25 3 -7 6 -4 6 7 1 13 8 21 20 22 14 1
18 -3 14 -15 -4 -14 -3 -14 5 -2 6 8 9 17 6 21 -7 12 -46 6 -51 -8z"/>
<path d="M7110 959 c0 -5 5 -7 10 -4 6 3 10 8 10 11 0 2 -4 4 -10 4 -5 0 -10
-5 -10 -11z"/>
<path d="M7140 966 c0 -2 7 -6 15 -10 8 -3 15 -1 15 4 0 6 -7 10 -15 10 -8 0
-15 -2 -15 -4z"/>
<path d="M7734 962 c4 -3 14 -7 22 -8 9 -1 13 0 10 4 -4 3 -14 7 -22 8 -9 1
-13 0 -10 -4z"/>
<path d="M2090 957 c0 -2 6 -10 14 -16 11 -9 16 -9 22 1 4 7 4 10 -1 6 -4 -4
-14 -3 -22 3 -7 6 -13 9 -13 6z"/>
<path d="M2177 953 c-10 -9 -9 -23 1 -23 5 0 9 7 9 15 0 17 -1 18 -10 8z"/>
<path d="M2466 943 c-6 -14 -5 -15 5 -6 7 7 10 15 7 18 -3 3 -9 -2 -12 -12z"/>
<path d="M2944 944 c-10 -8 -13 -12 -5 -8 11 5 13 3 8 -10 -4 -9 -3 -15 2 -12
7 5 23 46 17 46 -1 0 -11 -7 -22 -16z"/>
<path d="M3190 950 c-8 -5 -10 -10 -5 -10 6 0 17 5 25 10 8 5 11 10 5 10 -5 0
-17 -5 -25 -10z"/>
<path d="M4046 944 c-20 -19 -20 -25 -2 -18 8 3 17 12 20 20 7 18 1 18 -18 -2z"/>
<path d="M4081 937 c-13 -21 -12 -21 5 -5 10 10 16 20 13 22 -3 3 -11 -5 -18
-17z"/>
<path d="M7090 951 c0 -6 4 -13 10 -16 6 -3 7 1 4 9 -7 18 -14 21 -14 7z"/>
<path d="M7337 949 c7 -7 15 -10 18 -7 3 3 -2 9 -12 12 -14 6 -15 5 -6 -5z"/>
<path d="M7454 949 c-3 -6 -2 -15 3 -20 5 -5 9 -1 9 11 0 23 -2 24 -12 9z"/>
<path d="M2139 933 c-13 -16 -12 -17 4 -4 16 13 21 21 13 21 -2 0 -10 -8 -17
-17z"/>
<path d="M2234 939 c-2 -4 4 -6 13 -4 10 1 27 -5 38 -14 17 -14 18 -14 7 0 -6
9 -10 18 -7 20 2 3 -7 5 -21 5 -14 0 -27 -3 -30 -7z"/>
<path d="M2606 941 c-3 -5 1 -11 9 -14 9 -4 12 -1 8 9 -6 16 -10 17 -17 5z"/>
<path d="M2685 940 c3 -5 8 -10 11 -10 2 0 4 5 4 10 0 6 -5 10 -11 10 -5 0 -7
-4 -4 -10z"/>
<path d="M3290 940 c0 -5 5 -10 10 -10 6 0 10 5 10 10 0 6 -4 10 -10 10 -5 0
-10 -4 -10 -10z"/>
<path d="M3417 938 c-7 -5 0 -6 17 -4 16 3 31 7 33 10 8 8 -37 2 -50 -6z"/>
<path d="M3487 939 c7 -7 15 -10 18 -7 3 3 -2 9 -12 12 -14 6 -15 5 -6 -5z"/>
<path d="M3587 944 c-4 -4 -7 -12 -7 -18 0 -6 5 -4 10 4 9 13 11 13 21 0 9
-12 10 -12 7 -1 -5 17 -21 25 -31 15z"/>
<path d="M3710 940 c0 -6 4 -9 9 -6 5 4 12 1 14 -4 3 -6 4 -5 3 2 -3 15 -26
23 -26 8z"/>
<path d="M3915 939 c-4 -6 -4 -13 -1 -16 3 -4 6 -1 6 6 0 7 5 9 10 6 6 -3 10
-1 10 4 0 14 -17 14 -25 0z"/>
<path d="M4217 938 c-7 -5 0 -6 17 -4 16 3 31 7 33 10 8 8 -37 2 -50 -6z"/>
<path d="M4287 939 c7 -7 15 -10 18 -7 3 3 -2 9 -12 12 -14 6 -15 5 -6 -5z"/>
<path d="M4356 935 c-11 -8 -15 -15 -9 -15 7 0 15 5 18 10 4 6 11 8 16 5 5 -4
9 -1 9 4 0 15 -11 13 -34 -4z"/>
<path d="M4420 940 c8 -5 20 -10 25 -10 6 0 3 5 -5 10 -8 5 -19 10 -25 10 -5
0 -3 -5 5 -10z"/>
<path d="M4576 935 c-3 -8 0 -17 6 -21 6 -4 8 -3 4 4 -3 5 -1 12 6 14 8 3 9 6
1 11 -6 4 -13 0 -17 -8z"/>
<path d="M4631 934 c0 -11 3 -14 6 -6 3 7 2 16 -1 19 -3 4 -6 -2 -5 -13z"/>
<path d="M4980 939 c0 -5 5 -7 10 -4 6 3 10 8 10 11 0 2 -4 4 -10 4 -5 0 -10
-5 -10 -11z"/>
<path d="M5145 940 c-3 -6 1 -7 9 -4 18 7 21 14 7 14 -6 0 -13 -4 -16 -10z"/>
<path d="M5267 931 c-4 -17 -3 -21 5 -13 5 5 8 16 6 23 -3 8 -7 3 -11 -10z"/>
<path d="M5365 940 c3 -5 8 -10 11 -10 2 0 4 5 4 10 0 6 -5 10 -11 10 -5 0 -7
-4 -4 -10z"/>
<path d="M5507 933 c5 -12 3 -14 -7 -8 -9 5 -11 4 -6 -4 4 -6 12 -9 17 -6 12
8 12 35 -1 35 -5 0 -6 -7 -3 -17z"/>
<path d="M5590 939 c0 -5 5 -7 10 -4 6 3 10 8 10 11 0 2 -4 4 -10 4 -5 0 -10
-5 -10 -11z"/>
<path d="M5676 934 c-9 -24 -2 -26 12 -4 7 11 8 20 3 20 -5 0 -12 -7 -15 -16z"/>
<path d="M5830 938 c0 -3 9 -6 20 -5 11 1 20 5 20 9 0 3 -9 6 -20 5 -11 -1
-20 -5 -20 -9z"/>
<path d="M5887 939 c7 -7 15 -10 18 -7 3 3 -2 9 -12 12 -14 6 -15 5 -6 -5z"/>
<path d="M5956 938 c3 -4 0 -8 -7 -8 -7 0 -10 -3 -6 -6 3 -3 16 1 28 9 22 16
22 16 1 14 -11 0 -18 -5 -16 -9z"/>
<path d="M6011 947 c2 -1 13 -9 24 -17 19 -14 19 -14 6 3 -7 9 -18 17 -24 17
-6 0 -8 -1 -6 -3z"/>
<path d="M6074 942 c3 -5 0 -13 -6 -15 -8 -3 -6 -6 5 -6 19 -1 23 14 5 25 -6
4 -8 3 -4 -4z"/>
<path d="M6175 939 c-11 -16 -1 -19 13 -3 7 8 8 14 3 14 -5 0 -13 -5 -16 -11z"/>
<path d="M6295 939 c-4 -6 -4 -13 -1 -16 3 -4 6 -1 6 6 0 7 5 9 10 6 6 -3 10
-1 10 4 0 14 -17 14 -25 0z"/>
<path d="M6477 936 c-4 -10 -1 -13 9 -9 15 6 19 23 5 23 -5 0 -11 -7 -14 -14z"/>
<path d="M6600 940 c0 -5 5 -10 11 -10 5 0 7 -5 3 -12 -4 -7 -3 -8 4 -4 6 4 9
13 5 21 -6 17 -23 20 -23 5z"/>
<path d="M6811 947 c2 -2 11 -8 20 -15 12 -9 16 -9 16 1 0 7 -9 14 -20 14 -11
1 -18 1 -16 0z"/>
<path d="M6996 938 c3 -4 0 -8 -7 -8 -7 0 -9 -3 -6 -6 4 -4 13 -2 20 4 8 7 17
9 20 5 4 -3 7 -1 7 5 0 6 -9 10 -19 9 -11 0 -17 -5 -15 -9z"/>
<path d="M7133 936 c0 -8 6 -12 15 -8 9 3 13 1 9 -5 -3 -5 0 -10 8 -10 13 0
12 4 -2 19 -19 22 -30 23 -30 4z"/>
<path d="M7235 939 c-3 -4 3 -6 12 -4 10 1 27 -5 38 -14 20 -16 20 -16 2 5
-17 21 -44 27 -52 13z"/>
<path d="M7506 942 c-3 -5 1 -9 9 -9 8 0 12 4 9 9 -3 4 -7 8 -9 8 -2 0 -6 -4
-9 -8z"/>
<path d="M7546 938 c3 -5 10 -6 15 -3 13 9 11 12 -6 12 -8 0 -12 -4 -9 -9z"/>
<path d="M7654 936 c1 -8 5 -18 8 -22 4 -3 5 1 4 10 -1 8 -5 18 -8 22 -4 3 -5
-1 -4 -10z"/>
<path d="M2075 931 c-3 -5 -2 -12 3 -15 5 -3 9 1 9 9 0 17 -3 19 -12 6z"/>
<path d="M3116 927 c3 -10 9 -15 12 -12 3 3 0 11 -7 18 -10 9 -11 8 -5 -6z"/>
<path d="M3516 923 c-6 -14 -5 -15 5 -6 7 7 10 15 7 18 -3 3 -9 -2 -12 -12z"/>
<path d="M4841 933 c-1 -17 16 -25 25 -12 4 7 3 9 -4 5 -5 -3 -13 0 -15 6 -4
9 -6 10 -6 1z"/>
<path d="M5110 931 c0 -5 7 -11 14 -14 10 -4 13 -1 9 9 -6 15 -23 19 -23 5z"/>
<path d="M5386 923 c-6 -14 -5 -15 5 -6 7 7 10 15 7 18 -3 3 -9 -2 -12 -12z"/>
<path d="M6707 926 c-4 -10 1 -12 14 -9 23 6 24 9 5 16 -8 3 -17 0 -19 -7z"/>
<path d="M6917 929 c7 -7 15 -10 18 -7 3 3 -2 9 -12 12 -14 6 -15 5 -6 -5z"/>
<path d="M2320 920 c-9 -6 -10 -10 -3 -10 6 0 15 5 18 10 8 12 4 12 -15 0z"/>
<path d="M2673 915 c0 -8 4 -12 9 -9 5 3 6 10 3 15 -9 13 -12 11 -12 -6z"/>
<path d="M2910 925 c0 -5 5 -17 10 -25 5 -8 10 -10 10 -5 0 6 -5 17 -10 25 -5
8 -10 11 -10 5z"/>
<path d="M3030 921 c0 -10 29 -36 34 -30 1 2 -6 12 -16 22 -10 9 -18 13 -18 8z"/>
<path d="M3093 923 c4 -6 2 -13 -4 -15 -7 -2 -6 -8 3 -16 12 -9 14 -8 13 8 -1
11 -5 23 -10 27 -4 5 -5 3 -2 -4z"/>
<path d="M3242 921 c-10 -6 -10 -10 3 -21 13 -11 14 -10 9 5 -6 14 -4 16 6 10
9 -5 11 -4 6 3 -8 14 -7 14 -24 3z"/>
<path d="M3455 919 c-6 -8 -4 -10 5 -4 10 6 12 4 6 -11 -6 -15 -5 -17 5 -6 9
9 10 15 2 23 -8 8 -13 7 -18 -2z"/>
<path d="M3630 925 c0 -5 5 -17 10 -25 5 -8 10 -10 10 -5 0 6 -5 17 -10 25 -5
8 -10 11 -10 5z"/>
<path d="M3695 921 c6 -10 2 -12 -16 -6 -27 8 -24 3 8 -14 17 -9 21 -8 19 4
-1 8 -6 18 -11 22 -4 4 -5 2 0 -6z"/>
<path d="M3750 920 c0 -5 5 -10 11 -10 5 0 7 5 4 10 -3 6 -8 10 -11 10 -2 0
-4 -4 -4 -10z"/>
<path d="M3815 920 c6 -9 2 -10 -16 -5 -13 4 -22 6 -19 3 34 -27 38 -28 43
-14 4 9 1 18 -5 22 -7 5 -8 2 -3 -6z"/>
<path d="M3952 920 c3 -8 2 -22 -3 -30 -5 -11 -2 -16 11 -16 10 0 16 5 12 11
-4 5 -7 16 -8 23 -2 8 -6 17 -10 20 -4 4 -4 0 -2 -8z"/>
<path d="M4114 916 c1 -8 5 -18 8 -22 4 -3 5 1 4 10 -1 8 -5 18 -8 22 -4 3 -5
-1 -4 -10z"/>
<path d="M4254 919 c-4 -7 -3 -9 4 -5 6 3 13 -2 15 -11 4 -16 5 -16 6 -1 1 21
-15 32 -25 17z"/>
<path d="M4390 910 c-6 -11 -9 -20 -8 -20 2 0 11 9 21 20 9 11 13 20 7 20 -5
0 -14 -9 -20 -20z"/>
<path d="M4470 920 c8 -5 20 -10 25 -10 6 0 3 5 -5 10 -8 5 -19 10 -25 10 -5
0 -3 -5 5 -10z"/>
<path d="M4519 928 c-5 -18 -6 -38 -1 -34 7 8 12 36 6 36 -2 0 -4 -1 -5 -2z"/>
<path d="M4673 918 c2 -7 1 -20 -4 -28 -5 -11 -2 -16 11 -16 12 0 16 4 11 11
-5 5 -7 18 -6 28 2 9 -1 17 -7 17 -5 0 -8 -6 -5 -12z"/>
<path d="M4793 923 c4 -3 1 -13 -6 -22 -11 -14 -10 -14 6 -2 20 15 22 31 5 31
-6 0 -8 -3 -5 -7z"/>
<path d="M4876 915 c-9 -26 -7 -32 5 -12 6 10 9 21 6 23 -2 3 -7 -2 -11 -11z"/>
<path d="M4996 915 c-9 -26 -7 -32 5 -12 6 10 9 21 6 23 -2 3 -7 -2 -11 -11z"/>
<path d="M5156 915 c-9 -26 -7 -32 5 -12 6 10 9 21 6 23 -2 3 -7 -2 -11 -11z"/>
<path d="M5230 921 c0 -6 4 -13 10 -16 6 -3 7 1 4 9 -7 18 -14 21 -14 7z"/>
<path d="M5350 925 c0 -5 5 -17 10 -25 5 -8 10 -10 10 -5 0 6 -5 17 -10 25 -5
8 -10 11 -10 5z"/>
<path d="M5470 921 c0 -6 4 -13 10 -16 6 -3 7 1 4 9 -7 18 -14 21 -14 7z"/>
<path d="M5554 901 c0 -16 4 -27 8 -25 4 2 5 14 3 26 -7 32 -13 32 -11 -1z"/>
<path d="M5695 919 c-4 -6 -5 -12 -2 -15 2 -3 7 2 10 11 7 17 1 20 -8 4z"/>
<path d="M5973 916 c-3 -5 -1 -6 5 -2 7 4 12 2 12 -3 0 -6 5 -11 11 -11 5 0 8
4 5 9 -4 5 0 11 6 14 7 3 3 4 -10 4 -13 -1 -26 -6 -29 -11z"/>
<path d="M6190 921 c0 -6 4 -13 10 -16 6 -3 7 1 4 9 -7 18 -14 21 -14 7z"/>
<path d="M6274 901 c0 -16 4 -27 8 -25 4 2 5 14 3 26 -7 32 -13 32 -11 -1z"/>
<path d="M6390 923 c0 -6 8 -17 18 -24 16 -13 16 -13 2 6 -8 11 -16 22 -17 24
-2 2 -3 0 -3 -6z"/>
<path d="M6515 913 c1 -10 -1 -23 -6 -28 -5 -7 -1 -11 11 -11 13 0 16 5 11 16
-5 8 -6 21 -4 28 3 6 0 12 -5 12 -6 0 -9 -8 -7 -17z"/>
<path d="M6670 925 c0 -5 5 -17 10 -25 5 -8 10 -10 10 -5 0 6 -5 17 -10 25 -5
8 -10 11 -10 5z"/>
<path d="M6788 923 c6 -2 18 -2 25 0 6 3 1 5 -13 5 -14 0 -19 -2 -12 -5z"/>
<path d="M6882 905 c12 -14 23 -25 25 -25 2 0 -4 11 -13 25 -9 14 -20 25 -25
25 -5 0 1 -11 13 -25z"/>
<path d="M2253 907 c0 -8 6 -14 14 -14 9 0 10 4 2 14 -6 7 -12 13 -14 13 -1 0
-2 -6 -2 -13z"/>
<path d="M2448 912 c-17 -7 -17 -8 0 -18 15 -10 18 -8 18 7 0 11 0 19 -1 18 0
0 -8 -4 -17 -7z"/>
<path d="M2494 899 c0 -14 3 -16 16 -6 8 6 16 12 18 13 1 1 -5 4 -15 6 -13 4
-19 0 -19 -13z"/>
<path d="M2754 895 c0 -13 3 -22 7 -19 8 4 6 30 -2 38 -3 3 -5 -5 -5 -19z"/>
<path d="M3197 913 c-10 -9 -9 -23 1 -23 5 0 9 7 9 15 0 17 -1 18 -10 8z"/>
<path d="M3310 916 c0 -2 7 -9 15 -16 13 -11 14 -10 9 4 -5 14 -24 23 -24 12z"/>
<path d="M3386 904 c-5 -14 -4 -15 9 -4 17 14 19 20 6 20 -5 0 -12 -7 -15 -16z"/>
<path d="M4186 904 c-5 -14 -4 -15 9 -4 17 14 19 20 6 20 -5 0 -12 -7 -15 -16z"/>
<path d="M4944 904 c-18 -14 -18 -14 6 -3 31 14 36 19 24 19 -6 0 -19 -7 -30
-16z"/>
<path d="M5596 907 c3 -10 9 -15 12 -12 3 3 0 11 -7 18 -10 9 -11 8 -5 -6z"/>
<path d="M5715 911 c-3 -5 -2 -12 3 -15 5 -3 9 1 9 9 0 17 -3 19 -12 6z"/>
<path d="M5790 916 c0 -2 7 -9 15 -16 13 -11 14 -10 9 4 -5 14 -24 23 -24 12z"/>
<path d="M5866 903 c-6 -14 -5 -15 5 -6 7 7 10 15 7 18 -3 3 -9 -2 -12 -12z"/>
<path d="M6316 907 c3 -10 9 -15 12 -12 3 3 0 11 -7 18 -10 9 -11 8 -5 -6z"/>
<path d="M7088 912 c-17 -7 -17 -8 0 -18 15 -10 18 -8 18 7 0 11 0 19 -1 18 0
0 -8 -4 -17 -7z"/>
<path d="M7310 916 c0 -2 8 -10 18 -17 15 -13 16 -12 3 4 -13 16 -21 21 -21
13z"/>
<path d="M2155 901 c-3 -5 -2 -12 3 -15 5 -3 9 1 9 9 0 17 -3 19 -12 6z"/>
<path d="M2353 891 c0 -11 5 -18 9 -15 4 3 5 11 1 19 -7 21 -12 19 -10 -4z"/>
<path d="M2570 898 c0 -6 3 -8 7 -5 3 4 16 -1 27 -10 21 -18 21 -18 2 5 -21
24 -36 29 -36 10z"/>
<path d="M2633 892 c2 -12 6 -24 10 -28 3 -4 4 4 2 16 -6 30 -16 40 -12 12z"/>
<path d="M2722 901 c-11 -6 -10 -10 0 -19 11 -8 14 -7 14 9 0 10 0 19 -1 19 0
0 -6 -4 -13 -9z"/>
<path d="M2960 906 c0 -2 7 -7 16 -10 8 -3 12 -2 9 4 -6 10 -25 14 -25 6z"/>
<path d="M3013 895 c0 -8 4 -12 9 -9 5 3 6 10 3 15 -9 13 -12 11 -12 -6z"/>
<path d="M3590 898 c0 -4 4 -8 9 -8 6 0 12 4 15 8 3 5 -1 9 -9 9 -8 0 -15 -4
-15 -9z"/>
<path d="M3836 893 c-6 -14 -5 -15 5 -6 7 7 10 15 7 18 -3 3 -9 -2 -12 -12z"/>
<path d="M4343 899 c9 -6 15 -14 12 -19 -3 -5 -1 -11 4 -14 5 -4 8 0 7 6 -3
21 -16 38 -29 38 -7 0 -4 -5 6 -11z"/>
<path d="M4442 898 c-15 -15 -15 -28 -1 -28 5 0 8 4 4 9 -3 6 3 14 12 20 10 6
13 11 8 11 -6 0 -16 -5 -23 -12z"/>
<path d="M4817 896 c-4 -10 -1 -13 8 -9 8 3 12 9 9 14 -7 12 -11 11 -17 -5z"/>
<path d="M5036 895 c-9 -26 -7 -32 5 -12 6 10 9 21 6 23 -2 3 -7 -2 -11 -11z"/>
<path d="M5186 898 c3 -4 9 -8 15 -8 5 0 9 4 9 8 0 5 -7 9 -15 9 -8 0 -12 -4
-9 -9z"/>
<path d="M5333 895 c0 -8 4 -12 9 -9 5 3 6 10 3 15 -9 13 -12 11 -12 -6z"/>
<path d="M5406 901 c-3 -5 1 -11 9 -14 9 -4 12 -1 8 9 -6 16 -10 17 -17 5z"/>
<path d="M5943 899 c9 -6 15 -14 12 -19 -3 -5 -1 -11 4 -14 5 -4 8 0 7 6 -3
21 -16 38 -29 38 -7 0 -4 -5 6 -11z"/>
<path d="M6043 898 c-11 -19 -13 -39 -2 -32 5 3 7 9 4 14 -3 5 3 13 12 19 10
6 13 11 6 11 -6 0 -15 -6 -20 -12z"/>
<path d="M6150 898 c0 -4 4 -8 9 -8 6 0 12 4 15 8 3 5 -1 9 -9 9 -8 0 -15 -4
-15 -9z"/>
<path d="M6630 898 c0 -4 4 -8 9 -8 6 0 12 4 15 8 3 5 -1 9 -9 9 -8 0 -15 -4
-15 -9z"/>
<path d="M6925 900 c-3 -6 1 -7 9 -4 18 7 21 14 7 14 -6 0 -13 -4 -16 -10z"/>
<path d="M7593 895 c0 -8 4 -12 9 -9 5 3 6 10 3 15 -9 13 -12 11 -12 -6z"/>
<path d="M3495 890 c-3 -6 1 -7 9 -4 18 7 21 14 7 14 -6 0 -13 -4 -16 -10z"/>
<path d="M3910 890 c-9 -6 -10 -10 -3 -10 7 0 10 -9 8 -21 -3 -12 -1 -19 2
-15 6 5 14 57 9 56 -1 0 -8 -5 -16 -10z"/>
<path d="M4294 888 c-4 -7 -3 -8 5 -4 6 4 20 2 29 -6 15 -12 16 -11 3 5 -16
20 -27 22 -37 5z"/>
<path d="M4635 890 c-3 -5 -3 -10 1 -10 4 0 -1 -10 -12 -22 -19 -23 -19 -23 2
-5 11 9 21 24 21 32 0 18 -3 19 -12 5z"/>
<path d="M5895 890 c-4 -6 1 -7 11 -3 10 4 15 2 11 -4 -3 -5 0 -10 8 -10 11 0
12 4 4 14 -14 15 -26 17 -34 3z"/>
<path d="M6554 876 c0 -13 6 -23 13 -23 9 0 10 4 2 13 -7 8 -6 13 3 16 8 3 8
6 -3 10 -11 4 -15 -1 -15 -16z"/>
<path d="M7016 892 c-2 -4 4 -8 14 -8 10 0 16 4 14 8 -3 4 -9 8 -14 8 -5 0
-11 -4 -14 -8z"/>
<path d="M7493 885 c0 -8 4 -12 9 -9 5 3 6 10 3 15 -9 13 -12 11 -12 -6z"/>
<path d="M2016 882 c-3 -5 1 -9 9 -9 8 0 12 4 9 9 -3 4 -7 8 -9 8 -2 0 -6 -4
-9 -8z"/>
<path d="M2385 879 c-3 -4 2 -6 10 -5 21 3 28 13 10 13 -9 0 -18 -4 -20 -8z"/>
<path d="M2519 873 c-13 -16 -12 -17 4 -4 16 13 21 21 13 21 -2 0 -10 -8 -17
-17z"/>
<path d="M2829 874 c7 -15 7 -25 -2 -35 -7 -7 -3 -6 9 4 11 9 23 15 26 12 2
-3 5 2 5 10 0 11 -4 12 -10 6 -7 -7 -15 -5 -24 7 -13 15 -13 15 -4 -4z"/>
<path d="M2944 882 c4 -3 14 -7 22 -8 9 -1 13 0 10 4 -4 3 -14 7 -22 8 -9 1
-13 0 -10 -4z"/>
<path d="M3520 875 c-7 -9 -8 -15 -2 -15 5 0 12 7 16 15 3 8 4 15 2 15 -2 0
-9 -7 -16 -15z"/>
<path d="M3550 886 c0 -2 7 -7 16 -10 8 -3 12 -2 9 4 -6 10 -25 14 -25 6z"/>
<path d="M3664 882 c4 -3 14 -7 22 -8 9 -1 13 0 10 4 -4 3 -14 7 -22 8 -9 1
-13 0 -10 -4z"/>
<path d="M3996 881 c-3 -4 4 -17 17 -27 22 -19 22 -19 4 2 -9 11 -14 24 -10
27 3 4 4 7 0 7 -3 0 -8 -4 -11 -9z"/>
<path d="M4027 873 c3 -7 6 -13 8 -13 2 0 5 6 8 13 3 8 -1 14 -8 14 -7 0 -11
-6 -8 -14z"/>
<path d="M4598 883 c7 -3 16 -2 19 1 4 3 -2 6 -13 5 -11 0 -14 -3 -6 -6z"/>
<path d="M4719 888 c-6 -20 -6 -39 0 -42 4 -3 7 6 7 20 0 20 -4 32 -7 22z"/>
<path d="M4748 883 c7 -3 16 -2 19 1 4 3 -2 6 -13 5 -11 0 -14 -3 -6 -6z"/>
<path d="M4946 882 c-3 -5 1 -9 9 -9 8 0 12 4 9 9 -3 4 -7 8 -9 8 -2 0 -6 -4
-9 -8z"/>
<path d="M5078 883 c7 -3 16 -2 19 1 4 3 -2 6 -13 5 -11 0 -14 -3 -6 -6z"/>
<path d="M5115 882 c3 -3 -3 -15 -12 -26 -14 -15 -14 -18 -2 -8 9 6 18 11 20
9 2 -1 3 0 2 2 -2 2 2 9 7 16 7 8 5 12 -5 12 -8 0 -13 -3 -10 -5z"/>
<path d="M5225 880 c-3 -6 1 -7 9 -4 18 7 21 14 7 14 -6 0 -13 -4 -16 -10z"/>
<path d="M5264 868 c0 -17 2 -17 12 -4 6 9 13 15 15 13 2 -1 3 0 1 2 -8 14
-28 6 -28 -11z"/>
<path d="M5465 880 c-3 -6 1 -7 9 -4 18 7 21 14 7 14 -6 0 -13 -4 -16 -10z"/>
<path d="M5507 874 c2 -7 11 -10 19 -7 19 7 18 10 -5 16 -13 3 -18 1 -14 -9z"/>
<path d="M5642 869 c9 -9 15 -19 13 -23 -3 -3 -2 -4 2 -1 11 9 12 36 2 29 -6
-3 -16 -2 -22 3 -7 4 -5 1 5 -8z"/>
<path d="M6110 886 c0 -2 7 -7 16 -10 8 -3 12 -2 9 4 -6 10 -25 14 -25 6z"/>
<path d="M6185 880 c-3 -6 1 -7 9 -4 18 7 21 14 7 14 -6 0 -13 -4 -16 -10z"/>
<path d="M6231 869 c5 -10 12 -19 15 -19 3 0 3 4 0 9 -4 5 -1 11 6 13 7 3 3 7
-10 10 -19 5 -20 4 -11 -13z"/>
<path d="M6350 874 c14 -23 37 -28 37 -8 0 7 -4 11 -9 8 -5 -3 -16 0 -25 8
-15 12 -15 11 -3 -8z"/>
<path d="M6438 883 c7 -3 16 -2 19 1 4 3 -2 6 -13 5 -11 0 -14 -3 -6 -6z"/>
<path d="M6474 873 c2 -10 -2 -25 -8 -33 -9 -13 -9 -13 6 -2 16 12 18 35 6 48
-4 3 -5 -2 -4 -13z"/>
<path d="M6710 876 c7 -7 13 -7 20 0 6 6 3 10 -10 10 -13 0 -16 -4 -10 -10z"/>
<path d="M6753 868 c-2 -18 0 -20 7 -8 12 18 13 30 2 30 -4 0 -9 -10 -9 -22z"/>
<path d="M6833 883 c4 -3 -1 -16 -10 -27 -14 -15 -14 -18 -2 -8 9 6 18 10 20
7 3 -2 5 5 6 15 1 11 -3 20 -9 20 -6 0 -8 -3 -5 -7z"/>
<path d="M7150 876 c7 -7 13 -7 20 0 6 6 3 10 -10 10 -13 0 -16 -4 -10 -10z"/>
<path d="M2585 860 c10 -11 20 -20 23 -20 3 0 -3 9 -13 20 -10 11 -20 20 -23
20 -3 0 3 -9 13 -20z"/>
<path d="M3256 867 c3 -10 9 -15 12 -12 3 3 0 11 -7 18 -10 9 -11 8 -5 -6z"/>
<path d="M3290 870 c-8 -5 -12 -12 -9 -15 4 -3 12 1 19 10 14 17 11 19 -10 5z"/>
<path d="M3375 870 c-4 -6 -10 -8 -15 -5 -4 3 -7 -2 -6 -10 1 -8 4 -16 7 -17
2 -2 3 -1 1 1 -1 2 5 13 15 23 9 10 13 18 10 18 -3 0 -9 -5 -12 -10z"/>
<path d="M3455 869 c-4 -6 -5 -12 -2 -15 2 -3 7 2 10 11 7 17 1 20 -8 4z"/>
<path d="M3853 865 c0 -8 3 -13 5 -10 3 3 15 -3 26 -12 15 -14 18 -14 8 -2 -6
9 -8 20 -4 25 4 5 3 6 -2 2 -5 -4 -14 -3 -21 2 -8 7 -12 5 -12 -5z"/>
<path d="M4166 865 c-11 -8 -15 -15 -9 -15 6 0 16 7 23 15 16 19 11 19 -14 0z"/>
<path d="M4255 869 c-4 -6 -5 -12 -2 -15 2 -3 7 2 10 11 7 17 1 20 -8 4z"/>
<path d="M4574 866 c1 -8 5 -18 8 -22 4 -3 5 1 4 10 -1 8 -5 18 -8 22 -4 3 -5
-1 -4 -10z"/>
<path d="M4775 870 c-4 -6 -12 -7 -18 -4 -7 4 -9 4 -5 -1 4 -4 2 -15 -4 -24
-10 -12 -7 -12 8 2 11 9 23 15 26 12 2 -3 5 2 5 10 0 18 -3 19 -12 5z"/>
<path d="M4835 870 c-4 -6 -10 -8 -14 -6 -4 3 -8 -1 -8 -9 0 -10 4 -12 12 -5
7 5 14 8 17 5 2 -3 5 2 5 10 0 18 -3 19 -12 5z"/>
<path d="M5855 869 c-4 -6 -5 -12 -2 -15 2 -3 7 2 10 11 7 17 1 20 -8 4z"/>
<path d="M6413 865 c0 -8 3 -13 5 -10 3 3 10 0 17 -5 8 -7 12 -5 12 5 0 8 -3
13 -5 10 -3 -3 -10 0 -17 5 -8 7 -12 5 -12 -5z"/>
<path d="M2179 868 c-5 -18 -6 -38 -1 -34 7 8 12 36 6 36 -2 0 -4 -1 -5 -2z"/>
<path d="M2764 858 c-3 -4 5 -5 17 -3 30 6 36 14 9 12 -12 -1 -24 -5 -26 -9z"/>
<path d="M4507 859 c7 -7 15 -10 18 -7 3 3 -2 9 -12 12 -14 6 -15 5 -6 -5z"/>
<path d="M5393 856 c-3 -6 -3 -8 2 -4 4 4 13 3 20 -2 8 -7 12 -5 12 3 0 16
-25 18 -34 3z"/>
<path d="M5610 861 c0 -6 4 -13 10 -16 6 -3 7 1 4 9 -7 18 -14 21 -14 7z"/>
<path d="M7104 862 c4 -3 14 -7 22 -8 9 -1 13 0 10 4 -4 3 -14 7 -22 8 -9 1
-13 0 -10 -4z"/>
<path d="M7410 860 c0 -5 5 -10 11 -10 5 0 7 5 4 10 -3 6 -8 10 -11 10 -2 0
-4 -4 -4 -10z"/>
<path d="M3229 843 c-13 -16 -12 -17 4 -4 16 13 21 21 13 21 -2 0 -10 -8 -17
-17z"/>
<path d="M3310 856 c0 -2 8 -10 18 -17 15 -13 16 -12 3 4 -13 16 -21 21 -21
13z"/>
<path d="M2713 833 c0 -9 4 -10 14 -2 7 6 13 12 13 14 0 1 -6 2 -13 2 -8 0
-14 -6 -14 -14z"/>
<path d="M3030 835 c5 -7 6 -16 2 -21 -4 -5 -3 -5 2 -1 15 12 15 34 0 34 -9 0
-11 -4 -4 -12z"/>
<path d="M3747 839 c7 -9 10 -19 6 -22 -3 -4 -1 -7 5 -7 17 0 15 16 -5 31 -16
12 -17 12 -6 -2z"/>
<path d="M4076 833 c-6 -14 -5 -15 5 -6 7 7 10 15 7 18 -3 3 -9 -2 -12 -12z"/>
<path d="M5190 841 c0 -6 4 -13 10 -16 6 -3 7 1 4 9 -7 18 -14 21 -14 7z"/>
<path d="M6636 833 c-6 -14 -5 -15 5 -6 7 7 10 15 7 18 -3 3 -9 -2 -12 -12z"/>
<path d="M6906 842 c-3 -5 1 -9 9 -9 8 0 15 4 15 9 0 4 -4 8 -9 8 -6 0 -12 -4
-15 -8z"/>
<path d="M2995 831 c-3 -5 -2 -12 3 -15 5 -3 9 1 9 9 0 17 -3 19 -12 6z"/>
<path d="M3135 829 c-4 -6 -5 -12 -2 -15 2 -3 7 2 10 11 7 17 1 20 -8 4z"/>
<path d="M3656 827 c3 -10 9 -15 12 -12 3 3 0 11 -7 18 -10 9 -11 8 -5 -6z"/>
<path d="M3715 831 c-3 -5 -2 -12 3 -15 5 -3 9 1 9 9 0 17 -3 19 -12 6z"/>
<path d="M4469 823 c-13 -16 -12 -17 4 -4 9 7 17 15 17 17 0 8 -8 3 -21 -13z"/>
<path d="M5256 827 c3 -10 9 -15 12 -12 3 3 0 11 -7 18 -10 9 -11 8 -5 -6z"/>
<path d="M6216 827 c3 -10 9 -15 12 -12 3 3 0 11 -7 18 -10 9 -11 8 -5 -6z"/>
<path d="M6575 829 c-4 -6 -5 -12 -2 -15 2 -3 7 2 10 11 7 17 1 20 -8 4z"/>
<path d="M7073 825 c0 -8 4 -12 9 -9 5 3 6 10 3 15 -9 13 -12 11 -12 -6z"/>
<path d="M2355 820 c-3 -5 -1 -10 4 -10 6 0 11 5 11 10 0 6 -2 10 -4 10 -3 0
-8 -4 -11 -10z"/>
<path d="M2457 815 c-4 -8 -3 -16 1 -19 4 -3 9 4 9 15 2 23 -3 25 -10 4z"/>
<path d="M2595 820 c3 -5 8 -10 11 -10 2 0 4 5 4 10 0 6 -5 10 -11 10 -5 0 -7
-4 -4 -10z"/>
<path d="M3790 820 c0 -5 5 -10 11 -10 5 0 7 5 4 10 -3 6 -8 10 -11 10 -2 0
-4 -4 -4 -10z"/>
<path d="M3930 819 c0 -5 5 -7 10 -4 6 3 10 8 10 11 0 2 -4 4 -10 4 -5 0 -10
-5 -10 -11z"/>
<path d="M3996 818 c3 -5 10 -6 15 -3 13 9 11 12 -6 12 -8 0 -12 -4 -9 -9z"/>
<path d="M4326 818 c3 -5 10 -6 15 -3 13 9 11 12 -6 12 -8 0 -12 -4 -9 -9z"/>
<path d="M4695 820 c3 -5 8 -10 11 -10 2 0 4 5 4 10 0 6 -5 10 -11 10 -5 0 -7
-4 -4 -10z"/>
<path d="M4826 818 c3 -4 9 -8 15 -8 5 0 9 4 9 8 0 5 -7 9 -15 9 -8 0 -12 -4
-9 -9z"/>
<path d="M4867 819 c7 -7 15 -10 18 -7 3 3 -2 9 -12 12 -14 6 -15 5 -6 -5z"/>
<path d="M4934 815 c3 -23 12 -26 13 -5 1 11 -2 20 -7 20 -4 0 -7 -7 -6 -15z"/>
<path d="M5290 819 c0 -5 5 -7 10 -4 6 3 10 8 10 11 0 2 -4 4 -10 4 -5 0 -10
-5 -10 -11z"/>
<path d="M5360 820 c-9 -6 -10 -10 -3 -10 6 0 15 5 18 10 8 12 4 12 -15 0z"/>
<path d="M5530 819 c0 -5 5 -7 10 -4 6 3 10 8 10 11 0 2 -4 4 -10 4 -5 0 -10
-5 -10 -11z"/>
<path d="M6596 813 c-6 -14 -5 -15 5 -6 7 7 10 15 7 18 -3 3 -9 -2 -12 -12z"/>
<path d="M6826 819 c4 -8 30 -6 38 2 3 3 -5 5 -19 5 -13 0 -22 -3 -19 -7z"/>
<path d="M6956 818 c3 -5 10 -6 15 -3 13 9 11 12 -6 12 -8 0 -12 -4 -9 -9z"/>
<path d="M2533 805 c0 -8 4 -12 9 -9 5 3 6 10 3 15 -9 13 -12 11 -12 -6z"/>
<path d="M2775 800 c3 -5 8 -10 11 -10 2 0 4 5 4 10 0 6 -5 10 -11 10 -5 0 -7
-4 -4 -10z"/>
<path d="M2815 800 c-3 -5 -1 -10 4 -10 6 0 11 5 11 10 0 6 -2 10 -4 10 -3 0
-8 -4 -11 -10z"/>
<path d="M2850 799 c0 -5 5 -7 10 -4 6 3 10 8 10 11 0 2 -4 4 -10 4 -5 0 -10
-5 -10 -11z"/>
<path d="M3250 799 c0 -5 5 -7 10 -4 6 3 10 8 10 11 0 2 -4 4 -10 4 -5 0 -10
-5 -10 -11z"/>
<path d="M3295 800 c3 -5 8 -10 11 -10 2 0 4 5 4 10 0 6 -5 10 -11 10 -5 0 -7
-4 -4 -10z"/>
<path d="M4535 800 c3 -5 8 -10 11 -10 2 0 4 5 4 10 0 6 -5 10 -11 10 -5 0 -7
-4 -4 -10z"/>
<path d="M4770 799 c0 -5 5 -7 10 -4 6 3 10 8 10 11 0 2 -4 4 -10 4 -5 0 -10
-5 -10 -11z"/>
<path d="M4975 800 c3 -5 8 -10 11 -10 2 0 4 5 4 10 0 6 -5 10 -11 10 -5 0 -7
-4 -4 -10z"/>
<path d="M5010 799 c0 -5 5 -7 10 -4 6 3 10 8 10 11 0 2 -4 4 -10 4 -5 0 -10
-5 -10 -11z"/>
<path d="M5455 800 c3 -5 8 -10 11 -10 2 0 4 5 4 10 0 6 -5 10 -11 10 -5 0 -7
-4 -4 -10z"/>
<path d="M5735 800 c3 -5 8 -10 11 -10 2 0 4 5 4 10 0 6 -5 10 -11 10 -5 0 -7
-4 -4 -10z"/>
<path d="M7195 800 c3 -5 8 -10 11 -10 2 0 4 5 4 10 0 6 -5 10 -11 10 -5 0 -7
-4 -4 -10z"/>
<path d="M4036 787 c3 -10 9 -15 12 -12 3 3 0 11 -7 18 -10 9 -11 8 -5 -6z"/>
<path d="M4590 796 c0 -2 8 -10 18 -17 15 -13 16 -12 3 4 -13 16 -21 21 -21
13z"/>
<path d="M5069 783 c-13 -16 -12 -17 4 -4 16 13 21 21 13 21 -2 0 -10 -8 -17
-17z"/>
<path d="M5633 785 c0 -8 4 -12 9 -9 5 3 6 10 3 15 -9 13 -12 11 -12 -6z"/>
<path d="M5995 791 c-3 -5 -2 -12 3 -15 5 -3 9 1 9 9 0 17 -3 19 -12 6z"/>
<path d="M2170 781 c0 -6 4 -13 10 -16 6 -3 7 1 4 9 -7 18 -14 21 -14 7z"/>
<path d="M2590 786 c0 -2 7 -7 16 -10 8 -3 12 -2 9 4 -6 10 -25 14 -25 6z"/>
<path d="M6335 780 c-3 -5 -1 -10 4 -10 6 0 11 5 11 10 0 6 -2 10 -4 10 -3 0
-8 -4 -11 -10z"/>
<path d="M6927 779 c7 -7 15 -10 18 -7 3 3 -2 9 -12 12 -14 6 -15 5 -6 -5z"/>
<path d="M7235 781 c-3 -5 -2 -12 3 -15 5 -3 9 1 9 9 0 17 -3 19 -12 6z"/>
<path d="M3515 769 c-4 -6 -5 -12 -2 -15 2 -3 7 2 10 11 7 17 1 20 -8 4z"/>
<path d="M2790 760 c0 -5 5 -10 11 -10 5 0 7 5 4 10 -3 6 -8 10 -11 10 -2 0
-4 -4 -4 -10z"/>
<path d="M2835 761 c-3 -5 -2 -12 3 -15 5 -3 9 1 9 9 0 17 -3 19 -12 6z"/>
<path d="M3270 760 c0 -5 5 -10 11 -10 5 0 7 5 4 10 -3 6 -8 10 -11 10 -2 0
-4 -4 -4 -10z"/>
<path d="M3315 761 c-3 -5 -2 -12 3 -15 5 -3 9 1 9 9 0 17 -3 19 -12 6z"/>
<path d="M3750 760 c0 -5 5 -10 11 -10 5 0 7 5 4 10 -3 6 -8 10 -11 10 -2 0
-4 -4 -4 -10z"/>
<path d="M3795 760 c-3 -5 -1 -10 4 -10 6 0 11 5 11 10 0 6 -2 10 -4 10 -3 0
-8 -4 -11 -10z"/>
<path d="M4016 761 c-3 -5 2 -15 12 -22 15 -12 16 -12 5 2 -7 9 -10 19 -6 22
3 4 4 7 0 7 -3 0 -8 -4 -11 -9z"/>
<path d="M4493 755 c0 -8 4 -12 9 -9 5 3 6 10 3 15 -9 13 -12 11 -12 -6z"/>
<path d="M4973 755 c0 -8 4 -12 9 -9 5 3 6 10 3 15 -9 13 -12 11 -12 -6z"/>
<path d="M5173 763 c4 -3 1 -13 -6 -22 -11 -14 -10 -14 5 -2 16 12 16 31 1 31
-4 0 -3 -3 0 -7z"/>
<path d="M5830 760 c0 -5 5 -10 11 -10 5 0 7 5 4 10 -3 6 -8 10 -11 10 -2 0
-4 -4 -4 -10z"/>
<path d="M5875 760 c-3 -5 -1 -10 4 -10 6 0 11 5 11 10 0 6 -2 10 -4 10 -3 0
-8 -4 -11 -10z"/>
<path d="M6093 755 c0 -8 4 -12 9 -9 5 3 6 10 3 15 -9 13 -12 11 -12 -6z"/>
<path d="M6576 761 c-3 -5 2 -15 12 -22 15 -12 16 -12 5 2 -7 9 -10 19 -6 22
3 4 4 7 0 7 -3 0 -8 -4 -11 -9z"/>
<path d="M6835 760 c-3 -5 -1 -10 4 -10 6 0 11 5 11 10 0 6 -2 10 -4 10 -3 0
-8 -4 -11 -10z"/>
<path d="M2355 740 c3 -5 8 -10 11 -10 2 0 4 5 4 10 0 6 -5 10 -11 10 -5 0 -7
-4 -4 -10z"/>
<path d="M3900 746 c0 -2 8 -10 18 -17 15 -13 16 -12 3 4 -13 16 -21 21 -21
13z"/>
<path d="M4125 740 c-3 -6 1 -7 9 -4 18 7 21 14 7 14 -6 0 -13 -4 -16 -10z"/>
<path d="M2819 693 c-13 -16 -12 -17 4 -4 16 13 21 21 13 21 -2 0 -10 -8 -17
-17z"/>
<path d="M3300 700 c-9 -6 -10 -10 -3 -10 6 0 15 5 18 10 8 12 4 12 -15 0z"/>
<path d="M4370 701 c0 -6 4 -13 10 -16 6 -3 7 1 4 9 -7 18 -14 21 -14 7z"/>
<path d="M5380 700 c-9 -6 -10 -10 -3 -10 6 0 15 5 18 10 8 12 4 12 -15 0z"/>
<path d="M5967 699 c7 -7 15 -10 18 -7 3 3 -2 9 -12 12 -14 6 -15 5 -6 -5z"/>
<path d="M6036 702 c-3 -5 1 -9 9 -9 8 0 12 4 9 9 -3 4 -7 8 -9 8 -2 0 -6 -4
-9 -8z"/>
<path d="M6819 693 c-13 -16 -12 -17 4 -4 16 13 21 21 13 21 -2 0 -10 -8 -17
-17z"/>
<path d="M3399 653 c-13 -16 -12 -17 4 -4 16 13 21 21 13 21 -2 0 -10 -8 -17
-17z"/>
</g>
</svg>
